<?xml version="1.0" encoding="UTF-8" standalone="no"?>
<!-- Created with Inkscape (http://www.inkscape.org/) -->

<svg
   xmlns:dc="http://purl.org/dc/elements/1.1/"
   xmlns:cc="http://creativecommons.org/ns#"
   xmlns:rdf="http://www.w3.org/1999/02/22-rdf-syntax-ns#"
   xmlns:svg="http://www.w3.org/2000/svg"
   xmlns="http://www.w3.org/2000/svg"
   xmlns:sodipodi="http://sodipodi.sourceforge.net/DTD/sodipodi-0.dtd"
   xmlns:inkscape="http://www.inkscape.org/namespaces/inkscape"
   width="210mm"
   height="297mm"
   id="svg2"
   version="1.1"
   inkscape:version="0.48.2 r9819"
   sodipodi:docname="bckspc.svg">
  <defs
     id="defs4" />
  <sodipodi:namedview
     id="base"
     pagecolor="#ffffff"
     bordercolor="#666666"
     borderopacity="1.0"
     inkscape:pageopacity="0.0"
     inkscape:pageshadow="2"
     inkscape:zoom="4.873986"
     inkscape:cx="62.932504"
     inkscape:cy="376.18081"
     inkscape:document-units="px"
     inkscape:current-layer="layer1"
     showgrid="true"
     inkscape:snap-global="true"
     inkscape:window-width="1364"
     inkscape:window-height="747"
     inkscape:window-x="0"
     inkscape:window-y="19"
     inkscape:window-maximized="0"
     inkscape:object-paths="false"
     inkscape:snap-nodes="true"
     inkscape:object-nodes="false"
     inkscape:snap-smooth-nodes="true"
     inkscape:snap-bbox="true"
     inkscape:snap-grids="false"
     inkscape:snap-to-guides="false">
    <inkscape:grid
       type="xygrid"
       id="grid3758"
       empspacing="10"
       visible="true"
       enabled="true"
       snapvisiblegridlinesonly="true"
       units="mm"
       spacingx="1mm"
       spacingy="1mm"
       originy="297mm" />
  </sodipodi:namedview>
  <metadata
     id="metadata7">
    <rdf:RDF>
      <cc:Work
         rdf:about="">
        <dc:format>image/svg+xml</dc:format>
        <dc:type
           rdf:resource="http://purl.org/dc/dcmitype/StillImage" />
        <dc:title></dc:title>
      </cc:Work>
    </rdf:RDF>
  </metadata>
  <g
     inkscape:label="Ebene 1"
     inkscape:groupmode="layer"
     id="layer1">
    <path
       style="font-size:40px;font-style:normal;font-weight:normal;line-height:125%;letter-spacing:0px;word-spacing:0px;fill:none;stroke:#000000;stroke-width:0.48164463;stroke-miterlimit:4;stroke-opacity:1;stroke-dasharray:none;font-family:Sans"
       d="m 3.5433071,701.57478 95.6692909,0 -0.297789,-55.84162 50.572681,0 0,-17.45963 -15.80396,0 c 6.27142,-3.63737 10.92482,-8.1779 13.9978,-13.69677 3.01027,-5.58153 4.51541,-12.30447 4.51542,-20.01836 -1e-5,-12.79362 -5.19274,-23.04109 -15.35242,-31.00585 -9.71546,-7.67637 -22.3643,-11.70542 -37.929521,-12.04112 l 0,-21.37299 c 15.924571,-0.38242 28.685101,-4.90218 38.230541,-13.84728 9.97155,-9.34439 15.05139,-22.06278 15.0514,-37.92952 -1e-5,-5.83236 -0.67733,-11.26339 -1.80618,-16.40601 -1.12884,-5.20523 -2.70924,-10.22234 -4.96694,-15.0514 l -16.105,0 c 2.69672,4.89178 4.79138,9.79602 6.17107,14.75036 1.31701,4.89179 1.95669,9.88379 1.95668,14.90089 1e-5,11.22589 -3.44926,19.98074 -10.53597,26.18943 -6.74621,5.85858 -16.16786,9.0015 -27.995601,9.33185 l 0,-94.82379 50.572691,0 0,-17.30911 -50.572691,0 0,-0.90308 50.572691,-52.67989 0,-22.57708 -50.572691,52.52937 0,-83.83626 c 1.241611,-3.2742 2.431571,-6.80867 3.311311,-10.98752 l 1.35463,-6.02056 c 2.32047,-10.72407 4.71614,-17.63515 7.22467,-20.77092 2.50859,-3.19836 6.13348,-4.81639 10.837,-4.81645 5.07987,6e-5 9.06848,2.23269 11.8906,6.62262 2.75943,4.39005 4.06389,10.51094 4.06388,18.66371 1e-5,6.08333 -0.77765,12.30456 -2.40823,18.51324 -1.69326,6.20871 -4.20183,12.56792 -7.5257,18.96474 l 17.91117,0 c 2.195,-6.77311 3.7503,-13.333 4.81644,-19.4163 1.12885,-6.14595 1.80616,-11.96582 1.80617,-17.61012 -1e-5,-13.54619 -2.87231,-24.19506 -8.57929,-31.90896 -5.70698,-7.77648 -13.54624,-11.58948 -23.32966,-11.58957 -8.5918,9e-5 -15.25204,2.62154 -20.01836,7.82672 -0.503715,0.53639 -0.874808,1.04142 -1.354631,1.65565 l 0,-36.57488 90.609401,0 0,-17.30911 -55.84067,0 c 6.27142,-3.63738 10.92481,-8.3284 13.99779,-13.84728 3.01028,-5.58148 4.51541,-12.15391 4.51542,-19.86784 -1e-5,-12.79359 -5.19273,-23.19162 -15.35242,-31.15639 -9.71546,-7.6763 -22.3643,-11.70536 -37.929519,-12.04111 l 0,-21.222466 c 15.926259,-0.381463 28.684379,-5.05197 38.230539,-13.997796 9.97156,-9.344386 15.05139,-21.912277 15.0514,-37.778999 -1e-5,-5.832331 -0.67731,-11.263403 -1.80617,-16.40602 -1.12885,-5.20518 -2.70925,-10.222328 -4.96695,-15.0513933 l -16.105,0 c 2.69673,4.8917753 4.79138,9.7960253 6.17108,14.7503653 1.317,4.891776 1.95669,9.733317 1.95668,14.750367 1e-5,11.225884 -3.44927,19.980786 -10.53598,26.189424 -7.14938,6.208737 -17.24635,9.331914 -30.102795,9.331865 -12.856332,4.9e-5 -22.865499,-3.123128 -29.952272,-9.331865 -7.149322,-6.208638 -10.686399,-14.96354 -10.68649,-26.189424 9.1e-5,-5.01705 0.727577,-9.858591 2.107194,-14.750367 1.317086,-4.95434 3.323937,-9.85859 6.020559,-14.7503653 l -16.255506,0 c -2.1949,4.7663553 -3.750206,9.6706053 -4.816451,14.7503653 -1.128748,5.079906 -1.655548,10.322801 -1.655654,15.65345 1.06e-4,16.431162 4.904351,29.362791 14.750367,38.832597 7.352872,7.024979 16.701398,11.466322 28.146106,13.245225 l 0,22.878127 c -10.948501,1.55865 -20.213935,5.22753 -27.694564,11.13802 -10.15959,7.96477 -15.201803,18.3628 -15.201909,31.15639 l 14.449325,4.2144 c 9.1e-5,-9.15622 3.562251,-16.31812 10.837002,-21.52351 7.2122,-5.26788 17.221368,-7.97714 29.952274,-7.97723 12.731004,9e-5 22.827974,2.70935 30.102784,7.97723 7.21214,5.20539 10.6865,12.36729 10.68649,21.52351 1e-5,9.1563 -3.47435,16.40606 -10.68649,21.674 -7.27481,5.20533 -17.37178,7.82677 -30.102784,7.82672 -12.730906,5e-5 -22.740074,-2.62139 -29.952274,-7.82672 -7.274751,-5.26794 -10.836911,-12.5177 -10.837002,-21.674 l -14.449325,-4.2144 c 1.06e-4,7.71393 1.44253,14.28636 4.515418,19.86784 3.01038,5.51888 7.726479,10.2099 13.997796,13.84728 l -15.954477,0 0,17.30911 40.337736,0 0,72.84876 0,6.02053 c -1.042202,2.9135 -2.075084,5.1449 -3.160806,6.62263 -2.320352,3.07301 -5.468598,4.51545 -9.48238,4.51541 -5.267904,4e-5 -9.25652,-2.05698 -11.890601,-6.32157 -2.633902,-4.32724 -3.91327,-10.82443 -3.913361,-19.41631 9.1e-5,-5.64422 0.551978,-11.13796 1.806166,-16.40601 1.254372,-5.2679 3.211053,-10.31014 5.719531,-15.20192 l -16.406021,0 c -1.881317,4.76636 -3.273575,10.00926 -4.214389,15.65345 -0.940604,5.64434 -1.35452,11.66488 -1.354626,18.06167 1.06e-4,12.91916 2.583926,22.92832 7.977239,29.95228 5.393508,7.024 13.119884,10.53599 23.028633,10.53596 4.489307,0 8.447169,-0.81256 11.890601,-2.25769 l 0,62.31277 -40.337736,-45.75624 0,22.12555 40.337736,45.90674 0,5.71953 -81.4280412,0 0,17.30911 81.4280412,0 0,93.6197 c -7.069301,-1.40924 -12.991462,-4.08138 -17.610132,-8.12776 -7.149319,-6.20869 -10.686398,-14.96354 -10.68649,-26.18943 9.2e-5,-5.0171 0.727577,-10.0091 2.107196,-14.90089 1.317086,-4.95434 3.323935,-9.85858 6.020557,-14.75036 l -16.255505,0 c -2.194892,4.76637 -3.7502,9.67061 -4.816445,14.75036 -1.128748,5.07992 -1.655548,10.32281 -1.655654,15.65345 1.06e-4,16.43113 4.904352,29.36279 14.750367,38.8326 7.352536,7.02464 16.702104,11.46614 28.146106,13.24524 l 0,23.02864 c -10.948499,1.55865 -20.213937,5.22751 -27.694565,11.13803 -10.159589,7.96476 -15.201802,18.21223 -15.201908,31.00585 l 14.449339,4.2144 c 9.1e-5,-9.15621 3.562251,-16.31817 10.837002,-21.52349 7.2122,-5.26795 17.221368,-7.82668 29.952274,-7.82671 12.731004,3e-5 22.827974,2.55876 30.102784,7.82671 7.21214,5.20532 10.6865,12.36728 10.68649,21.52349 1e-5,9.15631 -3.47435,16.40608 -10.68649,21.67401 -7.27481,5.20527 -17.37178,7.82672 -30.102784,7.82672 -12.730906,0 -22.740074,-2.62145 -29.952274,-7.82672 -7.274751,-5.26793 -10.836911,-12.5177 -10.837002,-21.67401 l -14.449339,-4.2144 c 1.06e-4,7.71389 1.442531,14.43683 4.515418,20.01836 3.010379,5.51887 7.726481,10.0594 13.997797,13.69677 l -57.0447832,0 0,17.45963 95.8156462,0 0.359539,55.84162"
       id="text3835"
       inkscape:connector-curvature="0"
       sodipodi:nodetypes="cccccccscccssccccsccccccccccccccccsccccscccccccccscccssccccscsccccccccccccccccscsccccccccccccccccccccsccccccccccccccccccccccccccscsccccccccc" />
  </g>
</svg>
