<?xml version="1.0" encoding="UTF-8" standalone="no"?>
<!-- Created with Inkscape (http://www.inkscape.org/) -->

<svg
   xmlns:dc="http://purl.org/dc/elements/1.1/"
   xmlns:cc="http://creativecommons.org/ns#"
   xmlns:rdf="http://www.w3.org/1999/02/22-rdf-syntax-ns#"
   xmlns:svg="http://www.w3.org/2000/svg"
   xmlns="http://www.w3.org/2000/svg"
   xmlns:sodipodi="http://sodipodi.sourceforge.net/DTD/sodipodi-0.dtd"
   xmlns:inkscape="http://www.inkscape.org/namespaces/inkscape"
   width="210mm"
   height="297mm"
   id="svg2"
   version="1.1"
   inkscape:version="0.48.2 r9819"
   sodipodi:docname="bckspc2.svg">
  <defs
     id="defs4" />
  <sodipodi:namedview
     id="base"
     pagecolor="#ffffff"
     bordercolor="#666666"
     borderopacity="1.0"
     inkscape:pageopacity="0.0"
     inkscape:pageshadow="2"
     inkscape:zoom="2"
     inkscape:cx="122.31015"
     inkscape:cy="405.46127"
     inkscape:document-units="px"
     inkscape:current-layer="layer1"
     showgrid="true"
     inkscape:snap-global="true"
     inkscape:window-width="1364"
     inkscape:window-height="747"
     inkscape:window-x="0"
     inkscape:window-y="19"
     inkscape:window-maximized="0"
     inkscape:object-paths="false"
     inkscape:snap-nodes="true"
     inkscape:object-nodes="false"
     inkscape:snap-smooth-nodes="true"
     inkscape:snap-bbox="true"
     inkscape:snap-grids="false"
     inkscape:snap-to-guides="false">
    <inkscape:grid
       type="xygrid"
       id="grid3758"
       empspacing="10"
       visible="true"
       enabled="true"
       snapvisiblegridlinesonly="true"
       units="mm"
       spacingx="1mm"
       spacingy="1mm"
       originy="297mm" />
  </sodipodi:namedview>
  <metadata
     id="metadata7">
    <rdf:RDF>
      <cc:Work
         rdf:about="">
        <dc:format>image/svg+xml</dc:format>
        <dc:type
           rdf:resource="http://purl.org/dc/dcmitype/StillImage" />
        <dc:title></dc:title>
      </cc:Work>
    </rdf:RDF>
  </metadata>
  <g
     inkscape:label="Ebene 1"
     inkscape:groupmode="layer"
     id="layer1">
    <path
       style="font-size:40px;font-style:normal;font-weight:normal;line-height:125%;letter-spacing:0px;word-spacing:0px;fill:none;stroke:#000000;stroke-width:0.51730913;stroke-miterlimit:4;stroke-opacity:1;stroke-dasharray:none;font-family:Sans"
       d="m 184.8994,713.85809 -183.0000035,0.004 0,-15.27158 157.2040635,0 0,-18.75246 -16.9742,0 c 6.73578,-3.9067 11.73376,-8.78338 15.03429,-14.71096 1.54034,-2.85607 2.74997,-6.00033 3.55651,-9.37624 l 5.33475,0 0,43.00133 18.26747,0 0,-473.17621 17.7825,0 0,-18.75246 -17.7825,0 0,-204.6604205 -18.26747,0 0,35.8883265 -4.52646,0 c -0.29693,-3.396808 -0.6007,-6.706086 -1.29327,-9.861206 -1.21247,-5.590612 -3.07153,-10.97927 -5.49641,-16.165915 l -17.13587,0 c 2.89637,5.253998 5.14614,10.5214 6.62803,15.842597 1.41453,5.253999 2.10157,10.6157 2.10157,16.004251 0,12.057132 -3.86637,21.46031 -11.4778,28.128684 -7.67878,6.668476 -18.36179,9.861257 -32.17016,9.861206 -13.80833,5.1e-5 -24.558633,-3.19273 -32.170164,-9.861206 C 62.835545,65.331543 59.036531,55.928365 59.03648,43.871233 c 5.1e-5,-5.388551 0.781446,-10.750252 2.263227,-16.004251 1.414582,-5.321197 3.570053,-10.588599 6.466363,-15.842597 l -17.459183,0 c -2.357428,5.119291 -4.027924,10.386694 -5.173092,15.842597 -1.212364,5.45606 -1.939804,11.087175 -1.939907,16.812547 1.03e-4,17.647844 5.2675,31.537025 15.842592,41.708048 10.575245,10.103719 25.19192,15.195953 43.64796,15.195953 18.18667,0 32.61473,-4.997928 43.32464,-15.034294 8.18341,-7.668747 13.26546,-17.50155 15.19595,-29.260297 l 4.84978,0 0,149.534661 -23.92555,0 c 6.73578,-3.90671 11.73376,-8.78344 15.03429,-14.71097 3.23319,-5.99478 4.84973,-13.21554 4.84978,-21.50066 -5e-5,-13.74092 -5.41561,-24.9089 -16.32757,-33.46343 -10.91197,-8.62169 -25.21882,-12.93263 -43.00132,-12.93273 -17.782452,10e-5 -32.089257,4.31104 -43.001325,12.93273 -10.911911,8.55453 -16.489124,19.72251 -16.489227,33.46343 0,0.44644 -0.01028,0.85294 0,1.29327 l 15.842592,0 c 0.772756,-8.28532 4.552422,-14.92871 11.477796,-19.88407 7.746238,-5.65796 18.496542,-8.40617 32.170164,-8.40627 13.67367,1e-4 24.35667,2.74831 32.17016,8.40627 7.74613,5.59082 11.63945,13.28305 11.63945,23.11725 0,9.83431 -3.89332,17.62089 -11.63945,23.27891 -7.81349,5.59076 -18.49649,8.40633 -32.17016,8.40627 -13.673622,6e-5 -24.423926,-2.81551 -32.170164,-8.40627 -7.813437,-5.65802 -11.639404,-13.4446 -11.639455,-23.27891 0,-1.00621 0.08121,-1.94844 0.161407,-2.90986 l -15.680933,0 c 0.215719,7.58882 1.772871,14.29532 4.849772,19.88407 3.233287,5.92753 8.136913,10.80426 14.872639,14.71097 l -17.135866,0 0,18.75246 120.11271,0 0,69.83673 -4.20313,0 c -0.72496,-11.8145 -3.76337,-21.30232 -9.05291,-28.45199 -6.1296,-8.35233 -14.38766,-12.44766 -24.8955,-12.44776 -9.22802,1e-4 -16.38143,2.81566 -21.50067,8.40627 -5.18654,5.52341 -9.133709,14.9266 -11.962768,28.1287 l -1.454931,6.30469 c -2.222776,9.96902 -4.526405,16.58359 -6.951342,19.88408 -2.49219,3.30059 -5.873581,5.01148 -10.184524,5.01142 -5.658017,6e-5 -9.941958,-2.37098 -12.771069,-6.95133 -2.828957,-4.64767 -4.203085,-11.62596 -4.203137,-20.85403 5.2e-5,-6.06214 0.592837,-11.80106 1.93991,-17.45918 1.347227,-5.65796 3.448795,-11.23523 6.143046,-16.48923 l -17.620842,0 c -2.020663,5.11929 -3.515997,10.7504 -4.526456,16.81254 -1.010253,6.06231 -1.616488,12.52866 -1.61659,19.3991 1.02e-4,13.87578 2.936917,24.62608 8.72959,32.17016 5.792879,7.54413 14.091345,11.31613 24.733844,11.31613 8.756594,0 15.640582,-2.64039 20.692365,-7.75963 4.984534,-5.11919 8.567984,-13.37724 10.992814,-24.89549 l 1.6166,-6.46637 c 2.49229,-11.51814 5.06533,-18.94097 7.75963,-22.30897 2.69436,-3.43517 6.58762,-5.17298 11.63946,-5.17309 5.45601,1.1e-4 9.73995,2.39805 12.77107,7.11301 2.96371,4.71512 4.36479,11.4509 4.36479,20.20739 0,6.53376 -0.83524,13.05397 -2.58654,19.7224 -1.81865,6.66849 -4.51301,13.49856 -8.08296,20.36905 l 19.23743,0 c 2.35754,-7.27465 4.02798,-14.15859 5.1731,-20.69236 0.41384,-2.25199 0.53577,-4.43871 0.80829,-6.62802 l 5.01143,0 0,121.08268 -7.113,0 -55.12575,0 55.28741,-57.55065 0,-24.24888 -60.137184,62.56209 -53.024186,-59.97553 0,23.76387 48.821049,55.4491 -92.7923445,0 0,18.75245 157.1326655,0 0,-0.16139 6.95134,0 0,61.75378 -4.20313,0 c -0.20744,-4.76462 -0.66987,-9.42807 -1.61659,-13.74102 -1.21247,-5.59061 -3.07153,-10.97922 -5.49641,-16.16592 l -17.13587,0 c 2.89636,5.25405 5.14614,10.68312 6.62803,16.00426 1.41452,5.254 2.10156,10.45404 2.10156,15.84259 0,12.05714 -3.86637,21.4603 -11.47779,28.12868 -7.67878,6.66848 -18.36179,10.02291 -32.17016,10.02287 -13.808329,4e-5 -24.558634,-3.35439 -32.170165,-10.02287 -7.678731,-6.66838 -11.477745,-16.07154 -11.477797,-28.12868 5.2e-5,-5.38855 0.781446,-10.58859 2.263227,-15.84259 1.414583,-5.32114 3.570054,-10.75021 6.466364,-16.00426 l -17.459183,0 c -2.357429,5.11935 -4.027924,10.54836 -5.17309,16.00426 -1.212367,5.45612 -1.939807,10.92557 -1.939909,16.65089 1.02e-4,17.64784 5.267499,31.53701 15.842591,41.70805 10.575246,10.10371 25.191921,15.19601 43.647962,15.19595 18.18667,6e-5 32.61473,-4.99792 43.32464,-15.03429 7.52105,-7.04804 12.30994,-15.84767 14.54932,-26.35043 l 5.4964,0 0,102.81518 -4.68811,0 c -1.69212,-10.29988 -6.86288,-18.95246 -15.68093,-25.86546 -10.91197,-8.62167 -25.21882,-12.93257 -43.00132,-12.93273 -17.782454,1.6e-4 -32.089258,4.31106 -43.001325,12.93273 -10.911912,8.55458 -16.489126,19.72252 -16.489228,33.46344 0,1.39845 0.06467,2.71215 0.161407,4.04147 l 15.519274,0 c 0.128293,-9.59525 3.958915,-17.13653 11.639455,-22.63227 7.746238,-5.65796 18.496543,-8.56783 32.170157,-8.56793 13.67368,10e-5 24.35668,2.90997 32.17017,8.56793 7.74613,5.59082 11.63945,13.2831 11.63945,23.11725 0,9.83435 -3.89332,17.62089 -11.63945,23.27891 -7.81349,5.59077 -18.49649,8.24468 -32.17017,8.24462 -13.673614,6e-5 -24.423919,-2.65385 -32.170157,-8.24462 -7.813436,-5.65802 -11.639403,-13.44456 -11.639455,-23.27891 0,-0.11171 -9.84e-4,-0.21262 0,-0.32333 l -15.519274,0 c 0.491961,6.48014 2.128624,12.19335 4.849774,17.13587 3.233285,5.92759 8.13691,10.80426 14.872637,14.71099 l -61.1071615,0 -0.070897,18.75217 0,15.27158"
       id="text2992"
       inkscape:connector-curvature="0"
       sodipodi:nodetypes="cccccccccccccccccccccccscsccccccccsscccccscccccccccscsccccccccccccccccccccccccccsccccccsccccccccccccccccccccccccccscsccccccccsscccccccccccccscscsccccccc" />
  </g>
</svg>
