<?xml version="1.0" encoding="UTF-8" standalone="no"?>
<!-- Created with Inkscape (http://www.inkscape.org/) -->

<svg
   xmlns:dc="http://purl.org/dc/elements/1.1/"
   xmlns:cc="http://creativecommons.org/ns#"
   xmlns:rdf="http://www.w3.org/1999/02/22-rdf-syntax-ns#"
   xmlns:svg="http://www.w3.org/2000/svg"
   xmlns="http://www.w3.org/2000/svg"
   xmlns:sodipodi="http://sodipodi.sourceforge.net/DTD/sodipodi-0.dtd"
   xmlns:inkscape="http://www.inkscape.org/namespaces/inkscape"
   width="210mm"
   height="297mm"
   id="svg2"
   version="1.1"
   inkscape:version="0.48.2 r9819"
   sodipodi:docname="BS Logo.svg">
  <defs
     id="defs4">
    <clipPath
       id="clipPath3115"
       clipPathUnits="userSpaceOnUse">
      <path
         id="path3117"
         d="m 0,0 4656,0 0,810.914 -4656,0 L 0,0 z" />
    </clipPath>
  </defs>
  <sodipodi:namedview
     id="base"
     pagecolor="#ffffff"
     bordercolor="#666666"
     borderopacity="1.0"
     inkscape:pageopacity="0.0"
     inkscape:pageshadow="2"
     inkscape:zoom="1.4284658"
     inkscape:cx="147.12517"
     inkscape:cy="888.3439"
     inkscape:document-units="px"
     inkscape:current-layer="g3111"
     showgrid="true"
     inkscape:snap-grids="false"
     inkscape:snap-to-guides="true"
     inkscape:window-width="951"
     inkscape:window-height="711"
     inkscape:window-x="67"
     inkscape:window-y="24"
     inkscape:window-maximized="0">
    <inkscape:grid
       type="xygrid"
       id="grid3035"
       units="mm"
       empspacing="10"
       visible="true"
       enabled="true"
       snapvisiblegridlinesonly="true"
       dotted="false"
       spacingx="1mm" />
  </sodipodi:namedview>
  <metadata
     id="metadata7">
    <rdf:RDF>
      <cc:Work
         rdf:about="">
        <dc:format>image/svg+xml</dc:format>
        <dc:type
           rdf:resource="http://purl.org/dc/dcmitype/StillImage" />
        <dc:title></dc:title>
      </cc:Work>
    </rdf:RDF>
  </metadata>
  <g
     inkscape:label="Ebene 1"
     inkscape:groupmode="layer"
     id="layer1">
    <g
       transform="matrix(1.25,0,0,-1.25,51.857143,151.61544)"
       inkscape:label="ink_ext_XXXXXX"
       id="g3107">
      <g
         transform="scale(0.1,0.1)"
         id="g3109">
        <g
           id="g3111">
          <g
             clip-path="url(#clipPath3115)"
             id="g3113"
             transform="matrix(3.2527557,0,0,3.2527557,-113.13709,-1467.4352)"
             inkscape:transform-center-x="-32.189523"
             inkscape:transform-center-y="-16.094766" />
          <path
             style="fill:none;stroke:#000000;stroke-width:8px;stroke-linecap:butt;stroke-linejoin:miter;stroke-opacity:1"
             d="m -448.45962,-1283.536 1405.70395,5.6004 -0.1144,118.0785 528.67207,-0.99 29.3831,8.9208 14.0011,25.9019 -8.4006,29.4021 -23.8018,11.2008 -541.83963,-0.7 0,58.8044 760.25613,-0.7 7.0006,-17.5013 20.3015,-18.9015 26.6019,-11.9008 30.8023,-4.2004 37.1028,9.1008 24.5018,23.1016 14.701,35.7027 -2.8001,37.80279 -14.0011,28.70216 -30.1022,25.90184 -29.4022,7.00056 -31.5023,-0.7 -30.8023,-22.4016 -18.9014,-25.90192 -446.633,0.7 -317.82351,0 1.69616,67.97128 640.04965,0.4952 29.2057,2.47504 34.1558,13.36536 28.7107,22.77048 19.8004,27.72064 12.8703,33.16576 -0.4952,1461.76851 8.9102,18.31542 3.9601,23.26553 -5.9401,18.31542 -12.3753,12.87029 -19.3055,9.90024 -17.3253,1.48503 -19.3055,-5.94014 -13.8603,-10.39524 -9.4052,-17.3254 -1.9801,-15.84036 3.9601,-17.82041 5.9402,-12.87029 -560.8479,-581.638362 -13.3653,8.91024 -16.3354,1.980002 -15.3453,-2.970002 -14.8504,-9.40528 -7.9201,-10.3952 -8.4152,-17.32544 -0.99,-20.29544 8.4152,-20.29544 19.3054,-12.3752795 19.3055,-6.93016 28.7106,3.96008 16.3354,17.3253595 2.475,23.2656 -1.485,19.8004 -3.9601,13.86032 -12.8703,15.34536 13.3653,-17.8204 563.8179,583.618372 -16.8304,11.38527 18.8104,-14.85035 16.8304,-6.93015 21.7806,3.96009 14.3553,6.43514 7.4252,7.92019 -85.8334,47.09693 -132.3098,25.90191 -1.4001,-5.60042 -655.24839,-690.951062 11.37584,-12.77592 638.68065,-674.461518 8.4153,-7.6728 0.2472,-5.94016 -4.7025,-5.69264 -4.9502,-1.73248 -7.4252,4.45504 -652.91989,689.798318 13.86032,14.8504 -665.29528,-701.926158 -6.71096,-6.30456 -6.47544,0.1752 -4.37536,5.07536 -0.87504,7.17552 2.45016,4.9004 572.37944,600.812318 -5.93984,-3.96032 -81.65344,69.422 9.80072,18.90144 -2.10016,18.90136 -7.70056,15.4012 -10.5008,12.60096 -14.00096,8.40056 -21.70168,0 -16.1012,-6.30048 -11.20072,-13.30096 -7.70064,-20.30152 -0.7,-16.10112 7.70048,-14.00112 -553.740888,-577.542638 -14.001032,7.70056 -18.9014001,3.50024 -17.5012959,-3.50024 -25.201864,-23.80176 0,555.841118 -93.93472,0.316 -0.99002,-685.590638 12.87029,-38.11592 143.55329,-202.95464 35.640816,-17.8204 65.836504,-5.44512 0.136,-65.46445 -65.104832,2.1002 -36.402688,6.3005 -44.803312,21.70159 -30.102232,31.50232 -126.009316,185.51376 -14.5208,37.63632 -6.43514,44.55104 -0.49504,683.610638 -80.7566,-0.6416 0,-807.159678 16.10119,-45.50336 133.00983,-188.31393 23.80176,-22.4017 26.601972,-9.8007 37.8028,-4.2003 784.058008,2.1001 -0.7,63.7048 -618.14572,0 2.6642,65.11437 615.58904,-3.32 -0.99,72.27168 -567.28304,-0.99008 -39.8296,7.98464 -28.702104,22.4016 -116.602512,152.76824 -24.255552,5.44512 -24.25556,13.36528 -18.810432,17.32544 -17.32539,27.72064 -10.89026,35.14576 -0.99001,28.71064 -20.29548,1.98008 20.79048,-1.48504 6.43515,30.69072 16.83039,30.69072 21.780496,22.27552 22.275512,16.33536 3.46508,-86.132 -8.415192,-16.33536 3.960088,-21.78048 11.880272,-20.29552 17.820408,-10.3952 17.3253999,-3.96008 19.8004561,1.98 17.325392,11.88032 14.355328,16.83032 2.970072,16.8304 -4.455104,18.81048 -6.435144,11.88024 553.917656,576.193198 14.8504,-10.8902395 23.26552,-0.4952 17.8204,10.3952795 7.4252,8.91016 83.65688,-69.30152 85.142,92.07208 12.37528,-12.37528 -665.38152,703.777972 -224.016552,1.6e-4 0,-635.647012 -91.006728,0 -2.80021,866.664092 25.20187,9.80073 25.20186,15.40114 15.401144,19.60143 15.401136,33.6025 798.059,1.4001 0,-73.50543 -663.649064,0 -32.902432,-4.90036 -24.5018081,-11.90088 -21.0015519,-14.70109 -21.701608,-25.20186 -20.301496,-45.50336 -1.400104,-135.81005 224.016544,0.69992 -3.87384,7.05845 0,4.2076 4.2076,3.96009 9.15768,-1.73254 5.44512,-1.73254 651.43496,-687.323302 -16.8304,-16.83032 666.55627,703.593522 9.1006,7.00053 7.7006,-3.15024 1.4,-8.75064 133.0099,-25.90192 84.7063,-46.20342 0.7,-74.90554 28.4377,14.85818 23.018,20.79047 15.3453,19.30545 12.3753,28.46315 1.2375,34.40329 -5.4451,37.12585 -22.028,36.38333 -27.4731,28.21565 -22.028,8.16769 -4.7026,1.23753 0.2472,38.36337 -2.7226,21.533 -11.3852,20.79048 -18.563,24.75056 -24.2556,20.29547 -38.1158,16.58288 -29.7006,3.71258 -641.49843,0.94886 0,74.20549 368.00453,0.087 49.5012,19.3054 20.2955,-13.3653 26.7306,-3.4651 28.2156,7.4252 26.2356,17.8204 13.3654,28.7107 3.96,31.1857 -7.9202,25.2455 -15.8403,20.7905 -18.3155,15.8404 -26.2356,5.9401 -26.2356,-0.495 -31.1856,-17.8204 -18.8105,-24.2556 -9.9003,-30.1957 0.4952,-13.3653 -22.7704,-7.9202 -359.58947,0.1358 -1019.275352,1.4001 -78.055768,-0.35 -5.60042,6.6505 -11.20083,7.3505 -19.25142,3.8503 -16.10119,-3.1502 -17.50129,-9.8007 -11.20083,-14.7011 -4.55034,-17.1513 2.80021,-22.0516 15.40113,-22.0517 22.05164,-9.8007 24.15178,-0.7001 16.45122,9.4507 12.25091,14.3511 5.95044,12.6009 0.35,15.4012 -5.60042,17.1512 -8.40061,12.951 74.205476,0 -8.050592,21.0015 -15.051112,18.9014 -19.601452,17.8514 -19.95148,14.001 -22.40165,6.6505 -22.75168,1.7501 -21.00155,-0.35 -27.65205,-7.7006 -36.40269,-26.6019 -23.80176,-33.2525 -7.70057,-29.0521 1.40031,-47.9535 10.15076,-24.5018 27.30202,-31.50236 24.15178,-14.00104 20.65153,-5.95044 -0.35008,-867.714152 -79.10585,0 -0.35,202.664962 13.30098,6.30048 19.25142,17.15128 11.20084,27.302 2.10015,26.602 33.60249,3.50024 -34.30254,-3.85032 -4.55034,23.10176 -14.70108,23.45168 -19.25143,15.05112 -25.55189,10.8508 -27.65204,1.05008 -26.952,-9.80072 -22.40165,-19.25144 -16.10119,-31.15224 -2.10016,-35.35264 10.8508,-30.10224 23.80176,-17.15128 17.85132,-7.35048 -1.4001,-1141.0844 4.55034,-25.55192 14.70108,-33.60248 29.05215,-46.20336 108.85805,-156.11159 26.02038,-24.5887 33.16576,-17.8205 38.610888,-8.9102 32.670752,-3.4651 1022.51744,-4.7199 -4.90032,-340.2251"
             id="path3062"
             inkscape:connector-curvature="0"
             sodipodi:nodetypes="cccccccccccccccccccccccccccccccccccccccccccccccccccccccccccccccccccccccccccccccccccccccccccccccccccccccccccccccccccccccccccccccccccccccccccccccccccccccccccccccccccccccccccccccccccccccccccccccccccccccccccccccccccccccccccccccccccccccccccccccccccccccccccccccccccccccccccccccccccccccccccccccccccccccccccccccccccccccccc" />
        </g>
      </g>
    </g>
  </g>
</svg>
