<?xml version="1.0" encoding="UTF-8" standalone="no"?>
<!-- Created with Inkscape (http://www.inkscape.org/) -->

<svg
   xmlns:dc="http://purl.org/dc/elements/1.1/"
   xmlns:cc="http://creativecommons.org/ns#"
   xmlns:rdf="http://www.w3.org/1999/02/22-rdf-syntax-ns#"
   xmlns:svg="http://www.w3.org/2000/svg"
   xmlns="http://www.w3.org/2000/svg"
   xmlns:sodipodi="http://sodipodi.sourceforge.net/DTD/sodipodi-0.dtd"
   xmlns:inkscape="http://www.inkscape.org/namespaces/inkscape"
   width="210mm"
   height="297mm"
   id="svg2"
   version="1.1"
   inkscape:version="0.48.2 r9819"
   sodipodi:docname="combine4.svg">
  <defs
     id="defs4" />
  <sodipodi:namedview
     id="base"
     pagecolor="#ffffff"
     bordercolor="#666666"
     borderopacity="1.0"
     inkscape:pageopacity="0.0"
     inkscape:pageshadow="2"
     inkscape:zoom="0.70000001"
     inkscape:cx="260.34896"
     inkscape:cy="680.39889"
     inkscape:document-units="px"
     inkscape:current-layer="layer1"
     showgrid="false"
     inkscape:window-width="1920"
     inkscape:window-height="1153"
     inkscape:window-x="-4"
     inkscape:window-y="-4"
     inkscape:window-maximized="1" />
  <metadata
     id="metadata7">
    <rdf:RDF>
      <cc:Work
         rdf:about="">
        <dc:format>image/svg+xml</dc:format>
        <dc:type
           rdf:resource="http://purl.org/dc/dcmitype/StillImage" />
        <dc:title></dc:title>
      </cc:Work>
    </rdf:RDF>
  </metadata>
  <g
     inkscape:label="Ebene 1"
     inkscape:groupmode="layer"
     id="layer1">
    <path
       style="fill:none;stroke:#000000;stroke-width:2.06520462;stroke-opacity:1"
       d="m 5.095103,162.59869 0,90.73993 211.941617,0 c 18.05633,27.02502 48.83753,44.85366 83.76986,44.85366 3.47448,0 6.87767,-0.17265 10.26149,-0.5163 0.0103,0.0103 0.0551,-0.0103 0.0644,0 18.45029,21.07616 45.49088,34.39857 75.70266,34.39857 55.59175,0 100.67872,-45.02243 100.67872,-100.61419 0,-32.21334 -15.17886,-60.89252 -38.72258,-79.31677 7.40066,-14.01434 11.61677,-29.96814 11.61677,-46.91887 0,-55.591753 -45.08697,-100.6787219 -100.67872,-100.6787219 l 1e-4,0 c -55.59175,0 -100.67872,45.0869689 -100.67872,100.6787219 0,0.23872 -0.002,0.47159 0,0.70992 -24.27776,11.07654 -43.41031,31.48852 -52.72726,56.66405 l -201.228367,0"
       id="path3825"
       inkscape:connector-curvature="0"
       sodipodi:nodetypes="cccsccsscsccsccc" />
  </g>
</svg>
