<?xml version="1.0" encoding="UTF-8" standalone="no"?>
<!-- Created with Inkscape (http://www.inkscape.org/) -->

<svg
   xmlns:dc="http://purl.org/dc/elements/1.1/"
   xmlns:cc="http://creativecommons.org/ns#"
   xmlns:rdf="http://www.w3.org/1999/02/22-rdf-syntax-ns#"
   xmlns:svg="http://www.w3.org/2000/svg"
   xmlns="http://www.w3.org/2000/svg"
   xmlns:sodipodi="http://sodipodi.sourceforge.net/DTD/sodipodi-0.dtd"
   xmlns:inkscape="http://www.inkscape.org/namespaces/inkscape"
   width="210mm"
   height="297mm"
   id="svg3068"
   version="1.1"
   inkscape:version="0.48.3.1 r9886"
   sodipodi:docname="Neues Dokument 5">
  <defs
     id="defs3070" />
  <sodipodi:namedview
     id="base"
     pagecolor="#ffffff"
     bordercolor="#666666"
     borderopacity="1.0"
     inkscape:pageopacity="0.0"
     inkscape:pageshadow="2"
     inkscape:zoom="2.8"
     inkscape:cx="77.120104"
     inkscape:cy="979.57519"
     inkscape:document-units="px"
     inkscape:current-layer="layer1"
     showgrid="true"
     inkscape:snap-grids="false"
     inkscape:snap-to-guides="false"
     inkscape:window-width="1280"
     inkscape:window-height="1000"
     inkscape:window-x="0"
     inkscape:window-y="24"
     inkscape:window-maximized="1">
    <inkscape:grid
       type="xygrid"
       id="grid3076"
       empspacing="5"
       visible="true"
       enabled="true"
       snapvisiblegridlinesonly="true"
       units="mm"
       spacingx="1mm"
       spacingy="1mm" />
  </sodipodi:namedview>
  <metadata
     id="metadata3073">
    <rdf:RDF>
      <cc:Work
         rdf:about="">
        <dc:format>image/svg+xml</dc:format>
        <dc:type
           rdf:resource="http://purl.org/dc/dcmitype/StillImage" />
        <dc:title></dc:title>
      </cc:Work>
    </rdf:RDF>
  </metadata>
  <g
     inkscape:label="Ebene 1"
     inkscape:groupmode="layer"
     id="layer1">
    <path
       style="fill:none;stroke:#000000;stroke-width:1px;stroke-linecap:butt;stroke-linejoin:miter;stroke-opacity:1"
       d="m 0.57070641,153.28872 38.37836259,-2.54705 -0.131619,-10.7738 5.72375,0.66025 4.81957,0.87437 3.602065,0.79274 4.059872,0.96365 3.497462,1.03893 4.151786,0.91584 3.928572,-0.53572 2.857143,-3.03571 1.25,-2.14286 -0.357143,-5.17857 -2.5,-3.03572 -4.821429,-2.14285 -6.785714,-1.07143 -8.214286,0.17857 -11.428571,1.07143 -8.172816,1.30679 -7.54147,2.31694 -7.878807,3.88169 -7.2474623,4.63929 4.5152743,-0.3265 4.452139,-0.78059 6.017268,-0.48342 7.439268,-0.21238 8.847715,0.1511 2.61576,11.0906 35.423742,-0.6912 32.061162,0.35533 -0.13162,-10.7738 5.72375,0.66025 4.81957,0.87437 3.60206,0.79274 4.05988,0.96365 3.49746,1.03893 4.15178,0.91583 3.92858,-0.53571 c 2.65195,-1.57843 1.99767,-2.05478 2.85714,-3.03571 l 1.25,-2.14286 -0.35714,-5.17857 -2.5,-3.03572 -4.82143,-2.14285 c -2.04484,-0.57421 -4.4115,-0.8266 -6.78572,-1.07143 l -8.21428,0.17857 -11.42857,1.07143 -8.17282,1.30679 -7.541474,2.31694 -7.87881,3.88168 -7.247462,4.6393 4.515274,-0.3265 4.452139,-0.7806 6.017269,-0.48341 7.439274,-0.21238 8.84772,0.1511 1.35307,11.0906 38.3615,0.0106 0,-28.41054 -69.953076,-7.07106 -18.39905,-0.75035 -27.423068,-1.75798 -0.111168,-9.09977 4.834392,0.55766 4.070704,0.73851 3.042375,0.66957 3.429048,0.81391 2.954026,0.87751 3.50668,0.77353 3.318149,-0.45248 2.4132,-2.56402 1.055774,-1.8099 -0.30165,-4.373919 -2.111549,-2.56403 -4.072274,-1.80989 -5.731348,-0.90496 -6.937948,0.15083 -9.652796,0.90495 -6.902922,1.10374 -6.369674,1.95693 -6.654596,3.278549 -6.1213503,3.91844 3.8136903,-0.27577 3.760364,-0.6593 5.082304,-0.40831 6.283352,-0.17938 7.472955,0.12763 2.209322,9.36734 29.919591,-0.58381 27.079479,0.30012 -0.11117,-9.09976 4.8344,0.55766 4.070704,0.73851 3.04237,0.66956 3.42905,0.81392 2.95403,0.8775 3.50667,0.77353 3.31816,-0.45247 c 2.23989,-1.33317 1.68727,-1.73551 2.4132,-2.56402 l 1.05577,-1.8099 -0.30165,-4.373929 -2.11155,-2.56402 -4.07227,-1.8099 c -1.72711,-0.48499 -3.72604,-0.69816 -5.73135,-0.90495 l -6.93795,0.15082 -9.652794,0.90496 -6.902925,1.10374 -6.369671,1.95693 -6.654598,3.278539 -6.121349,3.91845 3.813687,-0.27577 3.760365,-0.65931 5.082305,-0.4083 6.283351,-0.17938 7.472955,0.12762 1.14283,9.36734 32.400884,0.009 0,-23.996109 -56.806744,-3.86655 -30.172713,-0.28656 -9.795702,-1.9336 -0.09754,-7.98374 4.241484,0.48926 3.571465,0.64794 2.669243,0.58745 3.0085,0.71409 2.591738,0.76989 3.076609,0.67866 2.911201,-0.39698 2.117237,-2.24956 0.926287,-1.58793 -0.264655,-3.83749 -1.852582,-2.24957 -3.572833,-1.58792 -5.028438,-0.79397 -6.087057,0.13233 -8.468948,0.79397 -6.056323,0.96837 -5.588472,1.71693 -5.838458,2.87645 -5.3706053,3.43787 3.345965,-0.24195 3.2991853,-0.57844 4.45899,-0.35823 5.512739,-0.15738 6.556451,0.11198 1.938361,8.21849 26.250151,-0.51221 23.758365,0.26332 -0.09753,-7.98374 4.241493,0.48927 3.571455,0.64793 2.669247,0.58745 3.0085,0.7141 2.59173,0.76988 3.076604,0.67866 2.91121,-0.39698 c 1.96519,-1.16967 1.48034,-1.52266 2.11724,-2.24956 l 0.92629,-1.58793 -0.26466,-3.83749 -1.85258,-2.24956 -3.57283,-1.58793 c -1.515294,-0.42551 -3.269074,-0.61254 -5.028444,-0.79397 l -6.087056,0.13233 -8.46894,0.79397 -6.056335,0.96837 -5.588472,1.71693 -5.838449,2.87645 -5.370607,3.43788 3.345958,-0.24195 3.299185,-0.57845 4.45899,-0.35823 5.512739,-0.15738 6.556454,0.11197 1.00267,8.2185 28.427127,0.008 0,-21.05315 -59.995979,-3.918868 -22.062898,0.256239 -1.639142,-1.887087 -0.08731,-7.146718 3.796803,0.437966 3.197029,0.580009 2.389397,0.525861 2.693084,0.639224 2.32002,0.689175 2.754055,0.607508 2.605987,-0.35536 1.895267,-2.013714 0.829168,-1.42145 -0.236904,-3.435164 -1.658354,-2.013723 -3.19826,-1.421441 -4.501245,-0.710729 -5.448887,0.118456 -7.581056,0.710729 -5.421373,0.866845 -5.002571,1.536926 -5.226349,2.57488 -4.8075463,3.077441 2.995171,-0.216584 2.9532953,-0.517796 3.991506,-0.320673 4.934778,-0.14088 5.869067,0.10024 1.735142,7.356856 23.498065,-0.458509 21.267512,0.235713 -0.08728,-7.146717 3.796809,0.437974 3.197025,0.580001 2.3894,0.525861 2.693087,0.639233 2.32001,0.689165 2.754047,0.607509 2.605996,-0.355361 c 1.75916,-1.04704 1.32514,-1.363023 1.89526,-2.013714 l 0.82918,-1.42145 -0.23691,-3.435164 -1.65836,-2.013714 -3.19825,-1.42145 c -1.35642,-0.380898 -2.926332,-0.54832 -4.501248,-0.710729 l -5.448885,0.118457 -7.581049,0.710728 -5.421388,0.866846 -5.002569,1.536925 -5.226342,2.574881 -4.807542,3.077449 2.995158,-0.216584 2.9533,-0.517804 3.991506,-0.320673 4.934779,-0.14088 5.869066,0.100231 0.897549,7.356865 25.446799,0.0072 0,-18.845918 -39.217485,-2.821687 -37.793512,-4.088709 -0.263133,-0.258283 -0.07197,-5.891182 3.129781,0.361024 2.635375,0.478113 1.969628,0.433477 2.219962,0.526925 1.912439,0.568101 2.270223,0.500781 2.148169,-0.29293 1.562308,-1.659945 0.683494,-1.171729 -0.195282,-2.831675 -1.367011,-1.659952 -2.636394,-1.171722 -3.710466,-0.585867 -4.491626,0.09764 -6.249216,0.585868 -4.468946,0.714557 -4.123719,1.266919 -4.3081843,2.122525 -3.962956,2.536796 2.468979,-0.178534 2.4344603,-0.42683 3.290278,-0.264337 4.067836,-0.11613 4.83799,0.08263 1.430312,6.064403 19.369922,-0.377958 17.53123,0.194303 -0.07196,-5.891182 3.129786,0.361031 2.635376,0.478106 1.96963,0.433478 2.219968,0.526932 1.91243,0.568093 2.270211,0.500782 2.148182,-0.292931 c 1.45011,-0.863096 1.092339,-1.123568 1.5623,-1.659945 l 0.68351,-1.17173 -0.19529,-2.831674 -1.367019,-1.659945 -2.636386,-1.171729 C 74.27144,17.832417 72.977332,17.694407 71.679094,17.56053 l -4.49162,0.09765 -6.249211,0.585866 -4.468957,0.714559 -4.123718,1.266918 -4.308177,2.122526 -3.962951,2.536802 2.468962,-0.178534 2.434464,-0.426836 3.290282,-0.264338 4.067837,-0.11613 4.83798,0.08262 2.326325,6.876358 23.683544,-0.450742 0.885674,-16.236173 -67.128487,0.135747 -0.05408,-4.4263916 2.351588,0.2712576 1.980112,0.359235 1.479897,0.325697 1.667989,0.39591 1.436929,0.426848 1.705751,0.376266 1.614045,-0.220096 1.173852,-1.247214 0.513554,-0.8803896 -0.146729,-2.127604 -1.027118,-1.247219 -1.980875,-0.880384 -2.787892,-0.440198 -3.374823,0.07337 -4.695404,0.440196 -3.357782,0.53689 -3.098393,0.95191 -3.236993,1.594779 -2.9776023,1.9060436 1.85509,-0.134144 1.8291533,-0.320702 2.472179,-0.1986116 3.056405,-0.08725 3.635067,0.06209 1.074677,4.5565436 14.553766,-0.283983 13.172248,0.145992 -0.05407,-4.4263916 2.351594,0.2712626 1.980106,0.35923 1.479899,0.325698 1.667992,0.395915 1.436922,0.426841 1.705748,0.376267 1.614047,-0.220096 c 1.089553,-0.648495 0.820739,-0.844202 1.173849,-1.247215 L 63.6453,9.6167864 63.498567,7.4891824 62.471445,6.2419684 60.490576,5.3615784 c -0.840112,-0.235927 -1.812452,-0.339621 -2.787889,-0.440211 l -3.374824,0.07337 -4.695401,0.440196 -3.357792,0.53689 -3.098393,0.95191 -3.236986,1.594779 -2.977599,1.9060486 1.855083,-0.134143 1.829156,-0.3207066 2.472176,-0.198613 3.056406,-0.08725 3.635068,0.06208 0.555906,4.5565486"
       id="path3078"
       inkscape:connector-curvature="0"
       sodipodi:nodetypes="ccccccccccccccccccccccccccccccccccccccccccccccccccccccccccccccccccccccccccccccccccccccccccccccccccccccccccccccccccccccccccccccccccccccccccccccccccccccccccccccccccccccccccccccccccccccccccccccccccccccccccccccccccccccccccccccccccccccccccccccccccccccccccccccccccccccccccccccccccccccccccccccccccccccccccccccccccccccccccccccccccccccccccccccccccccccccccccc" />
    <g
       id="g3098"
       transform="translate(53.790623,-22.475894)" />
  </g>
</svg>
