<?xml version="1.0" encoding="UTF-8" standalone="no"?>
<!-- Created with Inkscape (http://www.inkscape.org/) -->

<svg
   xmlns:dc="http://purl.org/dc/elements/1.1/"
   xmlns:cc="http://creativecommons.org/ns#"
   xmlns:rdf="http://www.w3.org/1999/02/22-rdf-syntax-ns#"
   xmlns:svg="http://www.w3.org/2000/svg"
   xmlns="http://www.w3.org/2000/svg"
   xmlns:sodipodi="http://sodipodi.sourceforge.net/DTD/sodipodi-0.dtd"
   xmlns:inkscape="http://www.inkscape.org/namespaces/inkscape"
   width="210mm"
   height="297mm"
   id="svg3068"
   version="1.1"
   inkscape:version="0.48.3.1 r9886"
   sodipodi:docname="flugzeug3.svg">
  <defs
     id="defs3070" />
  <sodipodi:namedview
     id="base"
     pagecolor="#ffffff"
     bordercolor="#666666"
     borderopacity="1.0"
     inkscape:pageopacity="0.0"
     inkscape:pageshadow="2"
     inkscape:zoom="0.98994949"
     inkscape:cx="101.87674"
     inkscape:cy="1046.0087"
     inkscape:document-units="px"
     inkscape:current-layer="layer1"
     showgrid="true"
     inkscape:snap-grids="false"
     inkscape:snap-to-guides="false"
     inkscape:window-width="1280"
     inkscape:window-height="1000"
     inkscape:window-x="0"
     inkscape:window-y="24"
     inkscape:window-maximized="1">
    <inkscape:grid
       type="xygrid"
       id="grid3076"
       empspacing="5"
       visible="true"
       enabled="true"
       snapvisiblegridlinesonly="true"
       units="mm"
       spacingx="1mm"
       spacingy="1mm" />
  </sodipodi:namedview>
  <metadata
     id="metadata3073">
    <rdf:RDF>
      <cc:Work
         rdf:about="">
        <dc:format>image/svg+xml</dc:format>
        <dc:type
           rdf:resource="http://purl.org/dc/dcmitype/StillImage" />
        <dc:title></dc:title>
      </cc:Work>
    </rdf:RDF>
  </metadata>
  <g
     inkscape:label="Ebene 1"
     inkscape:groupmode="layer"
     id="layer1">
    <path
       style="fill:none;stroke:#000000;stroke-width:2.08212233px;stroke-linecap:butt;stroke-linejoin:miter;stroke-opacity:1"
       d="m 1.1117675,314.38139 79.9084425,-5.30327 -0.274047,-22.43237 11.917547,1.37473 10.03493,1.82054 7.49994,1.65058 8.45315,2.00644 7.28215,2.16318 8.64452,1.90689 8.17977,-1.11543 5.94892,-6.32072 2.60265,-4.4617 -0.74361,-10.78242 -5.20531,-6.32074 -10.0388,-4.46167 -14.12869,-2.23085 -17.10315,0.3718 -23.795677,2.23085 -17.016802,2.7209 -15.702263,4.82415 -16.404639,8.08215 -15.090102,9.65957 9.401353,-0.67981 9.269897,-1.62528 12.528688,-1.00654 15.489465,-0.4422 18.422024,0.3146 5.446332,23.09199 73.756564,-1.43916 66.75526,0.73984 -0.27405,-22.43237 11.91754,1.37472 10.03494,1.82055 7.49993,1.65058 8.45316,2.00643 7.28214,2.16318 8.64452,1.90687 8.17978,-1.11541 c 5.52168,-3.28648 4.15939,-4.2783 5.94891,-6.32072 l 2.60266,-4.4617 -0.74361,-10.78241 -5.20531,-6.32074 -10.0388,-4.46168 c -4.25761,-1.19557 -9.18529,-1.72108 -14.1287,-2.23085 l -17.10314,0.37181 -23.79568,2.23085 -17.01681,2.72089 -15.70227,4.82416 -16.40464,8.08213 -15.09011,9.65959 9.40136,-0.67982 9.26989,-1.6253 12.52869,-1.00652 15.48948,-0.4422 18.42204,0.31461 2.81725,23.09198 79.87334,0.0221 0,-59.15421 -145.65086,-14.72281 -38.30907,-1.56232 -57.09818,-3.66033 -0.231465,-18.94684 10.065795,1.16112 8.475703,1.53767 6.334597,1.39412 7.1397,1.69466 6.15064,1.82709 7.30134,1.61058 6.90879,-0.94212 5.02458,-5.3386 2.19825,-3.76843 -0.62808,-9.10704 -4.3965,-5.33862 -8.47897,-3.76841 -11.93337,-1.88424 -14.445654,0.31405 -20.098302,1.88421 -14.372727,2.29812 -13.26244,4.07457 -13.855682,6.82634 -12.7454,8.15867 7.94057,-0.57419 7.829537,-1.37274 10.581978,-0.85015 13.082707,-0.37349 15.559606,0.26574 4.600078,19.50395 62.296249,-1.21557 56.38278,0.62489 -0.23147,-18.94681 10.06581,1.16111 8.47571,1.53767 6.33458,1.39411 7.13971,1.69468 6.15065,1.82706 7.30131,1.61058 6.90882,-0.94209 c 4.66372,-2.77583 3.5131,-3.61355 5.02457,-5.33861 l 2.19825,-3.76843 -0.62808,-9.10705 -4.3965,-5.33861 -8.47896,-3.76843 c -3.59606,-1.00981 -7.75808,-1.45365 -11.93338,-1.88422 l -14.44566,0.31403 -20.09829,1.88424 -14.37274,2.29812 -13.26243,4.07457 -13.85569,6.82631 -12.74539,8.1587 7.94056,-0.57419 7.82954,-1.37276 10.58198,-0.85014 13.0827,-0.37349 15.55961,0.26572 2.37951,19.50395 67.4626,0.0187 0,-49.96283 -118.27858,-8.05063 -62.823279,-0.59665 -20.395849,-4.026 -0.20309,-16.62312 8.831288,1.0187 7.436227,1.34909 5.55769,1.22314 6.264065,1.48683 5.396315,1.603 6.405873,1.41305 6.06148,-0.82656 4.40835,-4.68386 1.92864,-3.30626 -0.55105,-7.99012 -3.8573,-4.68388 -7.43907,-3.30625 -10.469826,-1.65314 -12.673996,0.27553 -17.633385,1.65314 -12.610005,2.01627 -11.635882,3.57485 -12.156383,5.98912 -11.182257,7.15807 6.966708,-0.50377 6.869307,-1.20438 9.284163,-0.74588 11.478196,-0.32769 13.651333,0.23316 4.035904,17.1119 54.656023,-1.06648 49.46782,0.54826 -0.20307,-16.62312 8.83131,1.01872 7.4362,1.34907 5.5577,1.22314 6.26407,1.48684 5.3963,1.60299 6.40586,1.41305 6.0615,-0.82656 c 4.09176,-2.43539 3.08225,-3.17036 4.40835,-4.68386 l 1.92865,-3.30626 -0.55106,-7.99013 -3.85729,-4.68385 -7.43907,-3.30627 c -3.15503,-0.88596 -6.80662,-1.27538 -10.46984,-1.65314 l -12.67399,0.27553 -17.63337,1.65314 -12.61003,2.01626 -11.63588,3.57486 -12.15637,5.98912 -11.18226,7.15809 6.9667,-0.50377 6.8693,-1.2044 9.28416,-0.74588 11.4782,-0.32769 13.65134,0.23314 2.08768,17.11192 59.18875,0.0167 0,-43.83524 -124.91896,-8.15956 -45.937648,0.53352 -3.412894,-3.92914 -0.18179,-14.880343 7.905408,0.911898 6.656605,1.20765 4.975016,1.094905 5.60733,1.33094 4.830566,1.43495 5.734279,1.26491 5.425983,-0.73991 3.946175,-4.192795 1.72643,-2.959632 -0.49326,-7.152432 -3.452897,-4.192817 -6.659168,-2.959614 -9.372142,-1.479825 -11.345249,0.24664 -15.784685,1.479825 -11.287962,1.804877 -10.415964,3.200068 -10.881898,5.361215 -10.009899,6.407608 6.236313,-0.450954 6.149121,-1.078115 8.310804,-0.66768 10.274811,-0.29333 12.220115,0.208712 3.612777,15.317869 48.925843,-0.95467 44.28156,0.49079 -0.18173,-14.880342 7.90542,0.911915 6.6566,1.207633 4.97502,1.094904 5.60734,1.33096 4.83054,1.43493 5.73427,1.26491 5.426,-0.73991 c 3.66278,-2.18006 2.7591,-2.83798 3.94616,-4.192796 l 1.72646,-2.959632 -0.49328,-7.152432 -3.45291,-4.192798 -6.65915,-2.959633 c -2.82423,-0.793076 -6.09298,-1.141669 -9.37214,-1.479825 l -11.34525,0.246642 -15.78467,1.479823 -11.28799,1.804879 -10.41596,3.200066 -10.88188,5.361217 -10.00989,6.407625 6.23628,-0.450954 6.14913,-1.078132 8.31081,-0.66768 10.27481,-0.293329 12.22011,0.208693 1.86881,15.317896 52.98334,0.015 0,-39.239508 -81.65559,-5.875097 -78.690716,-8.513192 -0.547875,-0.537777 -0.14985,-12.266161 6.516587,0.751696 5.487173,0.99549 4.101006,0.902552 4.622232,1.097123 3.981932,1.182855 4.726882,1.042688 4.47275,-0.609917 3.252916,-3.456208 1.423118,-2.439683 -0.406601,-5.895893 -2.846284,-3.456223 -5.489294,-2.439669 -7.725644,-1.219847 -9.352114,0.203299 -13.011632,1.219849 -9.304892,1.487795 -8.586087,2.63788 -8.970166,4.419356 -8.251359,5.28192 5.140716,-0.37173 5.068844,-0.888712 6.850761,-0.550382 8.469732,-0.241797 10.073286,0.172046 2.978085,12.626828 40.330545,-0.786955 36.502159,0.404563 -0.14982,-12.266161 6.51659,0.751711 5.48718,0.995475 4.10101,0.902554 4.62224,1.097137 3.98192,1.182839 4.72685,1.042689 4.47278,-0.609918 c 3.01931,-1.797071 2.27438,-2.339406 3.2529,-3.456208 l 1.42315,-2.439685 -0.40662,-5.895892 -2.8463,-3.456208 -5.48928,-2.439683 c -2.32807,-0.653747 -5.02256,-0.941101 -7.72565,-1.219849 l -9.3521,0.203319 -13.01162,1.219845 -9.30492,1.487799 -8.58608,2.637878 -8.970151,4.419359 -8.251349,5.281932 5.140681,-0.37173 5.068849,-0.888725 6.85077,-0.550384 8.46974,-0.241797 10.07326,0.172025 4.84369,14.317418 49.31204,-0.9385 1.84408,-33.805697 -139.769716,0.282642 -0.112601,-9.216288 4.896294,0.564791 4.122835,0.747972 3.081326,0.678141 3.472957,0.824333 2.991862,0.888749 3.551582,0.783432 3.360639,-0.458267 2.444104,-2.596852 1.069282,-1.833078 -0.305508,-4.429932 -2.138585,-2.5968624 -4.124424,-1.8330672 -5.804732,-0.916546 -7.026794,0.1527653 -9.776405,0.9165419 -6.991313,1.1178706 -6.451233,1.981993 -6.739815,3.3205248 -6.199732,3.968616 3.862524,-0.279304 3.808521,-0.667741 5.147379,-0.413534 6.363809,-0.181665 7.568654,0.129279 2.237609,9.487281 30.302719,-0.591288 27.426232,0.303974 -0.11258,-9.216289 4.8963,0.564802 4.12283,0.747961 3.08133,0.678143 3.47296,0.824343 2.99185,0.888735 3.55157,0.783434 3.36065,-0.458266 c 2.26858,-1.350246 1.70888,-1.757732 2.44409,-2.596854 l 1.0693,-1.833077 -0.30551,-4.429932 -2.1386,-2.5968518 -4.12441,-1.8330796 c -1.74922,-0.4912288 -3.77375,-0.7071324 -5.80473,-0.9165731 l -7.02679,0.1527653 -9.7764,0.9165419 -6.991334,1.1178706 -6.451232,1.981993 -6.739801,3.3205247 -6.199725,3.968626 3.862509,-0.279302 3.808527,-0.66775 5.147372,-0.413537 6.363811,-0.181665 7.568653,0.129258 1.15747,9.487291"
       id="path3078"
       inkscape:connector-curvature="0"
       sodipodi:nodetypes="ccccccccccccccccccccccccccccccccccccccccccccccccccccccccccccccccccccccccccccccccccccccccccccccccccccccccccccccccccccccccccccccccccccccccccccccccccccccccccccccccccccccccccccccccccccccccccccccccccccccccccccccccccccccccccccccccccccccccccccccccccccccccccccccccccccccccccccccccccccccccccccccccccccccccccccccccccccccccccccccccccccccccccccccccccccccccccccc" />
    <g
       id="g3098"
       transform="translate(53.790623,-22.475894)" />
  </g>
</svg>
