<?xml version="1.0" encoding="UTF-8" standalone="no"?>
<!-- Created with Inkscape (http://www.inkscape.org/) -->

<svg
   xmlns:dc="http://purl.org/dc/elements/1.1/"
   xmlns:cc="http://creativecommons.org/ns#"
   xmlns:rdf="http://www.w3.org/1999/02/22-rdf-syntax-ns#"
   xmlns:svg="http://www.w3.org/2000/svg"
   xmlns="http://www.w3.org/2000/svg"
   xmlns:sodipodi="http://sodipodi.sourceforge.net/DTD/sodipodi-0.dtd"
   xmlns:inkscape="http://www.inkscape.org/namespaces/inkscape"
   width="210mm"
   height="297mm"
   id="svg4012"
   version="1.1"
   inkscape:version="0.48.3.1 r9886"
   sodipodi:docname="Ghost.svg">
  <defs
     id="defs3" />
  <sodipodi:namedview
     inkscape:document-units="mm"
     id="base"
     pagecolor="#ffffff"
     bordercolor="#666666"
     borderopacity="1.0"
     inkscape:pageopacity="0.0"
     inkscape:pageshadow="2"
     inkscape:zoom="1.979899"
     inkscape:cx="55.362089"
     inkscape:cy="936.97171"
     inkscape:current-layer="layer1"
     showgrid="true"
     units="mm"
     inkscape:snap-grids="false"
     inkscape:window-width="1280"
     inkscape:window-height="1000"
     inkscape:window-x="0"
     inkscape:window-y="24"
     inkscape:window-maximized="1">
    <inkscape:grid
       type="xygrid"
       id="grid4029"
       units="mm"
       empspacing="10"
       visible="true"
       enabled="true"
       snapvisiblegridlinesonly="true" />
  </sodipodi:namedview>
  <metadata
     id="metadata4">
    <rdf:RDF>
      <cc:Work
         rdf:about="">
        <dc:format>image/svg+xml</dc:format>
        <dc:type
           rdf:resource="http://purl.org/dc/dcmitype/StillImage" />
        <dc:title />
      </cc:Work>
    </rdf:RDF>
  </metadata>
  <g
     inkscape:label="Layer 1"
     inkscape:groupmode="layer"
     id="layer1">
    <path
       style="fill:none;stroke:#000000;stroke-width:1px;stroke-linecap:butt;stroke-linejoin:miter;stroke-opacity:1"
       d="M 2.2728431,161.66018 1.2626911,150.80104 0.75761412,61.402534 11.111678,61.655073 l 0,-10.354064 19.697975,0.252538 0,19.950513 -10.354064,-0.252538 0,10.101525 20.455589,0 -0.252538,-10.101525 10.290929,0 0,-14.773481 0.06314,-5.398002 0,0.0947 9.785852,0 0,-9.975256 10.16466,-0.189404 -0.06313,-10.354064 19.824242,0.06314 0.37881,10.290929 9.848987,0.06313 -0.0631,30.115173 -9.975257,0.252538 0.12628,9.912122 -20.392504,-10e-7 0.189403,-9.848987 10.101526,-0.126269 0,-20.203051 -29.925769,0.06313 -10e-7,-2.935749 5e-6,-2.414897 -0.06314,-1.025937 0,-3.156726 -9.785853,0 -0.505076,-10.101526 -18.182746,0 -1.767767,1.767767 -0.252538,7.828683 -9.848987,0 0,-9.848988 7.765548,-0.06313 2.272843,-2.651652 -0.126269,-7.513009 10.227794,-0.06313 0,-10.101525 19.950513,0.126269 0,-10.22779474 29.736366,0.063135 0.189403,10.03839074 20.203046,0.126269 0.1894,10.101525 10.03839,0 0.12627,10.101526 9.72272,0.126269 c 0,0 -0.0631,29.988903 0.31567,29.925769 0.37881,-0.06314 9.78587,-0.06314 9.78587,-0.06314 l 0.3788,80.749072 -10.22779,-0.18941 -0.12627,-9.97525 -9.72272,-0.25254 -0.12627,-10.16466 -9.84899,0 -0.44194,0.0631 0.0631,10.16466 -10.227797,-0.12627 0.0631,10.16466 -9.975265,-0.0631 0,-19.82424 -29.988904,0.12626 0,19.88738 -9.848987,-0.12627 -0.252538,-9.91212 -9.59645,-0.0631 -0.252538,-10.16466 -10.290929,0 0,10.16466 -10.101525,0 0.126269,10.10152 -8.8388349,0 -0.631345,19.82425"
       id="path4031"
       inkscape:connector-curvature="0"
       sodipodi:nodetypes="cccccccccccccccccccccccccccccccccccccccccccccccccccccccsccccccccccccccccccccccccc" />
  </g>
</svg>
