<?xml version="1.0" encoding="UTF-8" standalone="no"?>
<!-- Created with Inkscape (http://www.inkscape.org/) -->

<svg
   xmlns:dc="http://purl.org/dc/elements/1.1/"
   xmlns:cc="http://creativecommons.org/ns#"
   xmlns:rdf="http://www.w3.org/1999/02/22-rdf-syntax-ns#"
   xmlns:svg="http://www.w3.org/2000/svg"
   xmlns="http://www.w3.org/2000/svg"
   xmlns:sodipodi="http://sodipodi.sourceforge.net/DTD/sodipodi-0.dtd"
   xmlns:inkscape="http://www.inkscape.org/namespaces/inkscape"
   width="210mm"
   height="297mm"
   id="svg2"
   version="1.1"
   inkscape:version="0.48.3.1 r9886"
   sodipodi:docname="Pacman.svg">
  <defs
     id="defs4">
    <clipPath
       id="clipPath3115"
       clipPathUnits="userSpaceOnUse">
      <path
         id="path3117"
         d="m 0,0 4656,0 0,810.914 -4656,0 L 0,0 z" />
    </clipPath>
  </defs>
  <sodipodi:namedview
     id="base"
     pagecolor="#ffffff"
     bordercolor="#666666"
     borderopacity="1.0"
     inkscape:pageopacity="0.0"
     inkscape:pageshadow="2"
     inkscape:zoom="5.0838703"
     inkscape:cx="28.703116"
     inkscape:cy="974.5761"
     inkscape:document-units="px"
     inkscape:current-layer="layer2"
     showgrid="true"
     inkscape:snap-bbox="true"
     inkscape:bbox-paths="true"
     inkscape:bbox-nodes="true"
     inkscape:snap-bbox-edge-midpoints="true"
     inkscape:snap-bbox-midpoints="true"
     inkscape:object-paths="true"
     inkscape:snap-intersection-paths="true"
     inkscape:object-nodes="true"
     inkscape:snap-smooth-nodes="true"
     inkscape:snap-midpoints="true"
     inkscape:snap-object-midpoints="true"
     inkscape:snap-center="true"
     inkscape:snap-grids="false"
     inkscape:snap-nodes="true"
     inkscape:snap-global="true"
     inkscape:window-width="1280"
     inkscape:window-height="1000"
     inkscape:window-x="0"
     inkscape:window-y="24"
     inkscape:window-maximized="1">
    <inkscape:grid
       type="xygrid"
       id="grid3932"
       units="mm"
       empspacing="10"
       visible="true"
       enabled="true"
       snapvisiblegridlinesonly="true"
       spacingx="1mm"
       spacingy="1mm" />
  </sodipodi:namedview>
  <metadata
     id="metadata7">
    <rdf:RDF>
      <cc:Work
         rdf:about="">
        <dc:format>image/svg+xml</dc:format>
        <dc:type
           rdf:resource="http://purl.org/dc/dcmitype/StillImage" />
        <dc:title />
      </cc:Work>
    </rdf:RDF>
  </metadata>
  <g
     inkscape:label="Ebene 1"
     inkscape:groupmode="layer"
     id="layer1" />
  <g
     inkscape:groupmode="layer"
     id="layer2"
     inkscape:label="asd"
     style="display:inline">
    <path
       style="fill:none;stroke:#000000;stroke-width:0.70107996px;stroke-linecap:butt;stroke-linejoin:miter;stroke-opacity:1"
       d="m 0.67150807,180.11402 70.04615493,0.25305 0.05642,-29.1175 -23.10959,0 0,-11.2116 -22.423175,0 -0.228808,-10.98277 -11.211587,0 0,-21.96556 -10.9827823,-0.22882 -0.2288074,-56.744364 10.5251647,0.228811 0.915231,0 0,-22.651986 10.982781,0 -0.228808,-10.982779 23.109602,-0.228809 0,-10.982781 55.82914,0 0,10.753973 22.65198,0 -0.22881,11.440396 10.98277,0.457616 0.22882,22.19437 -22.65199,-0.228811 0.45762,11.211593 -33.863582,0.228805 0,10.982784 -33.405948,0.228807 0.228805,11.21159 32.719538,0.228796 0.400415,0.05719 -0.05719,10.868381 33.634772,-0.05719 0.11438,11.211578 22.42318,0.0572 0,22.4232 -11.26878,-0.0572 0,11.32598 -22.36598,0 -0.11438,11.15441 -32.833981,0.0572 -0.05642,29.1175"
       id="path3991"
       inkscape:connector-curvature="0"
       sodipodi:nodetypes="ccccccccccccccccccccccccccccccccccccccccccc" />
  </g>
</svg>
