<?xml version="1.0" encoding="UTF-8" standalone="no"?>
<!-- Created with Inkscape (http://www.inkscape.org/) -->

<svg
   xmlns:dc="http://purl.org/dc/elements/1.1/"
   xmlns:cc="http://creativecommons.org/ns#"
   xmlns:rdf="http://www.w3.org/1999/02/22-rdf-syntax-ns#"
   xmlns:svg="http://www.w3.org/2000/svg"
   xmlns="http://www.w3.org/2000/svg"
   xmlns:sodipodi="http://sodipodi.sourceforge.net/DTD/sodipodi-0.dtd"
   xmlns:inkscape="http://www.inkscape.org/namespaces/inkscape"
   width="744.09448819"
   height="1052.3622047"
   id="svg2"
   version="1.1"
   inkscape:version="0.48.3.1 r9886"
   sodipodi:docname="python2.svg">
  <defs
     id="defs4" />
  <sodipodi:namedview
     id="base"
     pagecolor="#ffffff"
     bordercolor="#666666"
     borderopacity="1.0"
     inkscape:pageopacity="0.0"
     inkscape:pageshadow="2"
     inkscape:zoom="5.3500876"
     inkscape:cx="51.021984"
     inkscape:cy="988.89173"
     inkscape:document-units="px"
     inkscape:current-layer="layer2"
     showgrid="true"
     inkscape:window-width="1280"
     inkscape:window-height="1000"
     inkscape:window-x="0"
     inkscape:window-y="24"
     inkscape:window-maximized="1"
     inkscape:snap-grids="false"
     inkscape:snap-global="false">
    <inkscape:grid
       type="xygrid"
       id="grid3095"
       empspacing="10"
       visible="true"
       enabled="true"
       snapvisiblegridlinesonly="true"
       units="mm"
       spacingx="1mm"
       spacingy="1mm" />
  </sodipodi:namedview>
  <metadata
     id="metadata7">
    <rdf:RDF>
      <cc:Work
         rdf:about="">
        <dc:format>image/svg+xml</dc:format>
        <dc:type
           rdf:resource="http://purl.org/dc/dcmitype/StillImage" />
        <dc:title></dc:title>
      </cc:Work>
    </rdf:RDF>
  </metadata>
  <g
     inkscape:label="Layer 1"
     inkscape:groupmode="layer"
     id="layer1" />
  <g
     inkscape:groupmode="layer"
     id="layer2"
     inkscape:label="Layer">
    <path
       style="fill:none;stroke:#ff0000;stroke-width:1px;stroke-linecap:butt;stroke-linejoin:miter;stroke-opacity:1"
       d="m 30.465879,90.703249 c 0,0 -5.344096,0.0893 -11.07142,0.0893 -8.758199,0 -13.6607196,-14.608525 -13.6607196,-23.03571 0,-18.2946 5.0311016,-31.176851 17.4298666,-31.51786 15.478293,0.0704 37.740623,-0.10544 37.740623,-0.10544 l 0.0081,-3.28741 -26.42857,-0.17857 0,-14.138041 c 0,-6.233539 6.747438,-10.4155287 18.114186,-10.4155287 6.418262,-0.052967 10.772969,-0.2881279 16.252471,-0.1952557 8.608382,0 18.936923,3.9647374 18.936923,13.0523954 0,0 0.298528,16.968779 0.0893,28.504697 0,6.50572 -5.918291,12.71199 -11.990943,12.71199 -10.909674,0 -18.115995,-0.234537 -30.330487,-0.234537 -8.322183,0 -15.105966,8.144162 -14.919053,15.546524 0,6.421247 -0.170247,13.203446 -0.170247,13.203446 z"
       id="path2997"
       inkscape:connector-curvature="0"
       sodipodi:nodetypes="csccccccccccccccc" />
    <path
       style="fill:none;stroke:#ff0000;stroke-width:1px;stroke-linecap:butt;stroke-linejoin:miter;stroke-opacity:1"
       d="m 91.88929,36.627266 c 0,0 5.344096,-0.0893 11.07142,-0.0893 8.7582,0 13.66072,14.608525 13.66072,23.035709 0,18.2946 -5.0311,31.176851 -17.429867,31.51786 -15.478293,-0.0704 -37.740623,0.10544 -37.740623,0.10544 l -0.0081,3.28741 26.42857,0.17857 0,14.138045 c 0,6.23354 -6.747438,10.41552 -18.114186,10.41552 -6.418262,0.053 -10.772969,0.28813 -16.252471,0.19526 -8.608382,0 -18.936923,-3.96474 -18.936923,-13.05239 0,0 -0.298528,-16.968784 -0.0893,-28.504702 0,-6.50572 5.918291,-12.71199 11.990943,-12.71199 10.909674,0 18.115995,0.234537 30.330487,0.234537 8.322183,0 15.105966,-8.144162 14.919053,-15.546523 0,-6.421247 0.170247,-13.203446 0.170247,-13.203446 z"
       id="path2997-7"
       inkscape:connector-curvature="0"
       sodipodi:nodetypes="csccccccccccccccc" />
  </g>
</svg>
