<?xml version="1.0" encoding="UTF-8" standalone="no"?>
<!-- Created with Inkscape (http://www.inkscape.org/) -->

<svg
   xmlns:dc="http://purl.org/dc/elements/1.1/"
   xmlns:cc="http://creativecommons.org/ns#"
   xmlns:rdf="http://www.w3.org/1999/02/22-rdf-syntax-ns#"
   xmlns:svg="http://www.w3.org/2000/svg"
   xmlns="http://www.w3.org/2000/svg"
   xmlns:sodipodi="http://sodipodi.sourceforge.net/DTD/sodipodi-0.dtd"
   xmlns:inkscape="http://www.inkscape.org/namespaces/inkscape"
   width="210mm"
   height="297mm"
   id="svg2"
   version="1.1"
   inkscape:version="0.48.3.1 r9886"
   sodipodi:docname="squaregear.svg">
  <sodipodi:namedview
     id="base"
     pagecolor="#ffffff"
     bordercolor="#666666"
     borderopacity="1.0"
     inkscape:pageopacity="0.0"
     inkscape:pageshadow="2"
     inkscape:zoom="5.5170968"
     inkscape:cx="71.763196"
     inkscape:cy="981.15275"
     inkscape:document-units="px"
     inkscape:current-layer="layer1"
     showgrid="true"
     inkscape:window-width="1280"
     inkscape:window-height="1000"
     inkscape:window-x="0"
     inkscape:window-y="24"
     inkscape:window-maximized="1"
     inkscape:snap-global="true"
     inkscape:snap-grids="false"
     inkscape:snap-object-midpoints="true"
     inkscape:snap-bbox="true"
     inkscape:bbox-paths="true"
     inkscape:bbox-nodes="true"
     inkscape:snap-bbox-edge-midpoints="true"
     inkscape:snap-bbox-midpoints="true"
     inkscape:object-paths="true"
     inkscape:snap-intersection-paths="true"
     inkscape:object-nodes="true"
     inkscape:snap-smooth-nodes="true"
     inkscape:snap-midpoints="true"
     inkscape:snap-center="true">
    <inkscape:grid
       type="xygrid"
       id="grid3755"
       empspacing="10"
       visible="true"
       enabled="true"
       snapvisiblegridlinesonly="true"
       units="mm"
       spacingx="1mm"
       spacingy="1mm" />
  </sodipodi:namedview>
  <defs
     id="defs4">
    <symbol
       id="$PAPER_SPACE" />
    <symbol
       id="$MODEL_SPACE" />
    <pattern
       id="Hatch"
       x="0"
       y="0"
       patternUnits="userSpaceOnUse"
       width="8"
       height="8">
      <path
         id="path4282"
         d="M8 4 l-4,4"
         stroke-width="0.25"
         stroke="#000000"
         linecap="square" />
      <path
         id="path4284"
         d="M6 2 l-4,4"
         stroke-width="0.25"
         stroke="#000000"
         linecap="square" />
      <path
         id="path4286"
         d="M4 0 l-4,4"
         stroke-width="0.25"
         stroke="#000000"
         linecap="square" />
    </pattern>
    <marker
       orient="auto"
       id="DistanceX"
       style="overflow:visible"
       refX="0.0"
       refY="0.0">
      <path
         id="path4279"
         d="M 3,-3 L -3,3 M 0,-5 L  0,5"
         style="stroke:#000000; stroke-width:0.5" />
    </marker>
  </defs>
  <metadata
     id="metadata7">
    <rdf:RDF>
      <cc:Work
         rdf:about="">
        <dc:format>image/svg+xml</dc:format>
        <dc:type
           rdf:resource="http://purl.org/dc/dcmitype/StillImage" />
        <dc:title></dc:title>
      </cc:Work>
    </rdf:RDF>
  </metadata>
  <g
     inkscape:label="Ebene 1"
     inkscape:groupmode="layer"
     id="layer1">
    <polyline
       transform="matrix(1.6918392,0,0,1.6918392,-13.949209,0.40074287)"
       id="polyline4413"
       points=" 30.94820578605507 ,82.9897706732178 30.650734838460899 ,82.7543163535433 30.488556275683511 ,82.3915130929716 30.291054306856161 ,81.5464563815189 29.851609452753969 ,80.4417968399168 29.436354223555071 ,79.204094360718 29.211299527683071 ,78.241059283462 28.812075824509161 ,77.3703347116719 28.165679505802071 ,76.7809622366145 27.36814128605506 ,76.6037096732179 26.57916155563289 ,77.0468946767263 26.086748519436181 ,77.8736448344057 25.39668684855506 ,79.8814038607178 24.884903857028871 ,81.0352694062908 24.20736361935618 ,82.0866913399168 23.781665622803889 ,82.536468474486 23.24899371466795 ,82.7962536732179 22.868871036055062 ,82.7478744232178 22.104478886055048 ,82.5640332732178 21.677068825155331 ,82.168474568865 21.39929242814679 ,81.6557663334714 21.105716147187689 ,80.4686742009526 21.001431986055039 ,79.3903544732178 21.078838786055069 ,78.7185740303468 21.430617023775682 ,77.6604883812062 21.562631286055069 ,76.6037096732179 21.064757086814119 ,75.7204791578038 20.175759452753969 ,75.1845850065189 19.671664349596689 ,75.1350474601284 19.174897217571392 ,75.2785220547837 18.32122153605507 ,75.9264001732178 17.633815486870152 ,76.7560799981128 16.847267052753999 ,77.4680856065189 15.676770856394331 ,78.1093914280303 14.402502286055061 ,78.4421211732178 13.81056793309682 ,78.2372208202597 12.99096652136058 ,77.4176194085234 12.849936067605331 ,76.9480018952467 12.929708898658211 ,76.4466794702836 13.34325133869171 ,75.4273300153079 13.87363222122236 ,74.3939622965442 14.64879664964746 ,73.5338263550626 15.51845244852694 ,72.8056458612057 16.073785467899619 ,71.8889318550624 15.99901753605506 ,70.9571600660889 15.452606267991881 ,70.2007573508716 14.62827211935616 ,69.7983618399168 13.90412668049356 ,69.8046775368777 13.199932357442171 ,70.0103090303468 12.38845020968934 ,70.2263347076622 11.54812653605506 ,70.2660279232178 10.374761570054179 ,70.1040537039425 9.264625936055074 ,69.6951527732178 8.7369112480219062 ,69.1893458851517 8.5002337860550696 ,68.4759956732178 8.6332767235550705 ,67.7624017357179 9.5483767885327993 ,66.8482595709884 10.70530907550836 ,66.1894395416746 12.4279129542387 ,65.5327934443128 14.12604942892604 ,64.8337292803468 14.479580174305459 ,64.4425096951548 14.63804597855651 ,63.8992103473601 14.59863143822105 ,63.3241416438153 14.35852114964746 ,62.8376139913732 13.81153761727248 ,62.3795854945364 13.166380784819721 ,62.0924352032301 11.74164353605506 ,61.7029006732178 10.757932119356161 ,61.3481195065189 9.6109166248820692 ,61.0020338419869 8.5647394527539724 ,60.509545839917 8.3067167860550661 ,60.0672212684329 8.3067167860550661 ,58.6849569827877 8.4357281193561633 ,58.1873418399168 8.7909738752825941 ,57.8611028489098 9.239180712478511 ,57.6745353152069 10.233823577753959 ,57.4132738399169 12.19168767222174 ,56.7625644903659 14.088037161055061 ,55.9699595482178 14.6903091019744 ,55.4541079768125 14.886294786055061 ,54.7362886732178 14.69732633492532 ,54.2757624190802 14.34485845660792 ,53.9116381264159 13.397702478325551 ,53.4337704039424 11.29726199419734 ,52.7424333727223 9.2335613649617141 ,51.9557549364013 8.7787457296663582 ,51.684179848455 8.5002337860550696 ,51.2621977684329 8.5002337860550696 ,49.8799334827878 8.6292451193561632 ,49.3823183399168 8.9856477057818491 ,49.0586176487962 9.4354861117036481 ,48.8759757819905 10.42572793605507 ,48.6017997732178 11.707086928926021 ,48.1705333160888 13.61461164318408 ,47.4517558874759 14.518877139130201 ,46.8627686722546 14.801307435373539 ,46.4202302443599 14.87554384162137 ,45.9205142287842 14.520782385402979 ,45.1745893372021 13.821951286055061 ,44.6734046732178 11.872958643184081 ,43.9408046018307 10.711856643184079 ,43.5537706018307 9.8174582848253902 ,43.2897690219019 8.9598366610550695 ,42.9559412982178 8.6483638640753302 ,42.6181964209333 8.5002337860550696 ,42.1729613311278 8.5002337860550696 ,40.8896380679446 8.7318449720910785 ,40.4486868162663 9.1412588485550703 ,40.1499447982178 11.64911672357608 ,39.2705110797644 14.121902636055051 ,38.3212091482178 14.756186823651779 ,37.6547134163007 14.89171134536597 ,37.2168428569557 14.847591386055051 ,36.7779110732179 14.22960292356762 ,36.0265470129597 13.295826942305061 ,35.5962478919678 9.3019470717970236 ,34.1681961018307 8.8041707362316615 ,33.901763400632 8.5002337860550696 ,33.458633768433 8.5002337860550696 ,32.0763694827877 8.6292451193561632 ,31.5787543399168 9.3211194539133366 ,31.1323637607817 10.17415583605508 ,30.8901563482179 12.137462911193509 ,30.2441090542563 14.04772111935616 ,29.4823201732178 14.699050590456761 ,28.8279201701037 14.84329100832027 ,27.9449351176516 14.39142918516322 ,27.2014051168931 13.598520986588371 ,26.7410124031284 11.68757260962434 ,26.1128477026068 10.30945671249453 ,25.6843891113521 8.9775757193561532 ,25.160440506519 8.5002337860550696 ,24.556851768433 8.5002337860550696 ,23.1745874827877 8.6292451193561632 ,22.6769723399168 8.9808869079498006 ,22.3618877931246 9.4248746458088082 ,22.1873739795542 10.39670038605505 ,21.9158054732179 11.635209186055061 ,21.451364673218 13.363961052754 ,20.948220473218 13.936083271681721 ,20.7061591573775 14.430801827229731 ,20.3080642919849 14.76999569266 ,19.796784456173 14.87554384162137 ,19.2151682287841 14.60796279332151 ,18.5539207146752 14.034819986055041 ,18.0938447232179 11.258794318899939 ,17.036054774923 9.984083098065172 ,16.4121312642845 8.9425583574421772 ,15.438515030347 8.6937507860550696 ,14.9132546018307 8.7905092860550642 ,14.2525322732178 9.1775432860550676 ,13.5655469232178 10.04272326401027 ,13.0950248677484 11.021330258320271 ,12.8667355343505 11.74164353605506 ,12.7914789232178 13.096262536055059 ,12.9849959232179 14.47784851336222 ,13.2830803986569 15.145829392656969 ,13.19188646035 15.71314014964746 ,12.8574506277808 16.242963483769771 ,12.0041552006867 16.251664730488741 ,11.0229485620852 15.7961235084269 ,10.2577332445651 15.13614214557002 ,9.65264283391062 14.43455692234102 ,9.06614673177731 13.85420411935616 ,8.35671433991681 13.316056569911369 ,7.27917644640621 13.09088706378984 ,6.12051789548312 13.11618340370782 ,5.70818755556522 13.47463229868827 ,5.25771582762181 13.935784815444061 ,4.88858614382892 14.441205686055071 ,4.61538567321782 15.16708319069844 ,4.72913574530432 15.87095481544406 ,5.01380302617622 17.132110717404661 ,5.6957290681151 18.156732086055069 ,6.70536927321783 19.163440743730941 ,7.64824243117582 19.761421599988861 ,7.89692830156011 20.38079532179702 ,7.85679542321782 21.06930489374021 ,7.4921266407691 21.562631286055069 ,6.9053368399168 21.72843579002063 ,5.94376255882682 21.479695428926039 ,4.9609517446049 21.194948986055032 ,3.53169047321782 21.272355786055069 ,2.7648793607178 21.765824136055059 ,1.117565898218 22.10787729750178 ,0.657111524034718 22.599329500313111 ,0.358011673217817 23.062388036055069 ,0.30963242321792 23.816535168402311 ,0.397853408523417 24.450652431040819 ,1.00406518720291 24.949178786055072 ,1.74488350651902 25.53282299003655 ,2.88773146793773 25.971190442305058 ,4.10135614196781 26.555208117841119 ,5.58542186336192 27.00529913214643 ,6.16412924548041 27.642290369356161 ,6.45379717321782 28.29159110324559 ,6.33659879258411 28.838123541204268 ,5.8912052377064 29.250373872389421 ,5.25299100063302 29.49682828605507 ,4.55733057321802 29.98062078605507 ,2.82535342321802 30.574994428926061 ,1.27952119704582 30.82248134296611 ,0.537901099256516 31.326443558773551 ,0.0677361732178099 32.804209740618113 ,0.0677361732178099 33.302662619356163 ,0.196747506519017 33.61534214954775 ,0.541142147807022 33.78969511082007 ,0.976902574368523 34.034292680781732 ,1.94179554167451 35.205579786055061 ,5.1636838399169 35.635156407457089 ,5.91918498961971 36.337654236055052 ,6.38606622321802 37.225652238603232 ,6.26701260913512 37.882564952753981 ,5.61522350651902 38.58189406365053 ,3.90617026045521 39.192029986055047 ,2.15771977321782 39.461248951599522 ,1.13302469713523 39.94674628605506 ,0.261253173217824 40.728487467035187 ,0.00842077808042063 41.614678524141063 ,0.0677361732178099 42.204444619356153 ,0.196747506519017 42.520692005543992 ,0.547694056069105 42.696256755079233 ,0.991078065590415 42.951951462485773 ,1.9687561144398 44.171867452753951 ,5.33569895095272 44.817697937912712 ,6.17278306621401 45.26388127320962 ,6.418476724398 45.752256286055058 ,6.45379717321782 46.541922303037367 ,6.01128777509871 47.035003996879269 ,5.18491897585602 47.704501315444062 ,3.16969984964862 48.115757459234217 ,1.83325108027472 48.62275845275397 ,0.543465464916807 49.226347190839981 ,0.0677361732178099 50.608611476485201 ,0.0677361732178099 51.106226619356143 ,0.196747506519017 51.423087124197231 ,0.549888693856104 51.598647943982797 ,0.995844877253518 51.867393486055057 ,1.9738786232179 52.493671368540717 ,3.80966099777251 53.202660786055063 ,5.60716029821782 53.591007553230227 ,6.09726990814312 54.141218236055053 ,6.38606622321802 54.716739770153907 ,6.40214916090432 55.22579305877354 ,6.1459292186548 55.734750188118547 ,5.50254050323241 56.0614902835595 ,4.76258683306352 56.589208286055062 ,3.16400817321792 57.460034786055047 ,0.69666642321792 57.730802930752901 ,0.304430519156 58.128129190839992 ,0.0677361732178099 59.510393476485199 ,0.0677361732178099 59.989578428926038 ,0.20596260183072 60.447146887668232 ,0.942114453950524 60.696606611055053 ,1.83841672321782 61.297438510119733 ,3.64997163342602 61.998888058773531 ,5.41584235506241 62.428112186831399 ,6.0139689965784 63.043000236055057 ,6.38606622321802 63.505126508100403 ,6.41408341476841 63.961057111136469 ,6.26276288544261 64.620163786055059 ,5.582970673218 65.411824240618117 ,3.41030253681032 65.974782786055059 ,1.80938917321782 66.207428488912655 ,0.921910625933918 66.632740586055078 ,0.183846373217818 67.387772909282177 ,-6.88913814883563e-08 68.226616967899631 ,0.0677361732178099 68.891360428926006 ,0.20596260183072 69.369996123904187 ,0.991290753158523 69.62883908013859 ,1.94598940852342 70.386970386055069 ,3.95742787321802 70.643094422343665 ,4.9957566586217 71.135236119356165 ,5.90549900651891 71.84802373605504 ,6.38606622321802 72.742021213208034 ,6.29238972779032 73.425187286055063 ,5.67972917321782 73.945015146082724 ,4.40571092476202 74.366383604210526 ,3.0848421277808 75.024003601419096 ,1.77081015298 75.924781869356167 ,0.607971131518923 76.328024197640531 ,0.336908618726824 76.811734786055069 ,0.261253173217824 77.069757452753947 ,0.358011673217817 77.543683096733773 ,0.439884726951902 77.945191500313101 ,0.662109816088702 78.398761173597919 ,1.43922079399081 78.601767036055065 ,2.3415609232178 78.698525536055072 ,3.018870423218 78.698525536055072 ,4.179972423218 78.314254685956072 ,5.60218301465952 78.222767199776641 ,6.27894422216932 78.424376452753947 ,6.9053368399168 78.917945542285707 ,7.41936310460002 79.563615181822797 ,7.78335968794562 80.252469290078167 ,7.9099250555779 80.875591786055068 ,7.71165767321781 81.656038009423014 ,6.95368533687252 82.371627055330507 ,6.11886390394241 83.723640608044775 ,5.14553389103341 85.326482786055067 ,4.71214417321792 85.945737186055084 ,4.73149587321802 86.414922585836877 ,5.07042870085752 86.755531401417372 ,5.54575586548842 86.910006938539127 ,6.16792593948972 86.794154976332166 ,6.8152266135491 86.216660986055047 ,8.10514223991692 85.72921857439988 ,8.91162459237552 85.060396911055065 ,9.57425879821781 84.467039639013336 ,10.0566283791344 83.853267512149756 ,10.8010217337338 83.617082619356154 ,11.6680052287842 84.039995419679883 ,12.6089376507094 84.89106953605507 ,13.2268921732179 85.808256867363895 ,13.2748574472006 86.736392357442156 ,12.9780846018307 87.784176155019168 ,12.8112424138477 88.858168036055048 ,12.8882374232178 89.796413122621445 ,13.0731442009935 90.669702174922421 ,13.4526620065189 91.001927125016607 ,13.798966953098 91.157795052753983 ,14.2654334065189 91.223499286537589 ,14.8436066696227 91.099739952753936 ,15.387832006519 90.421472218205167 ,16.110666912844 89.544015050749536 ,16.6362063791344 87.706603286180126 ,17.391485260049 85.870749348555066 ,18.1494808607178 85.296886435310554 ,18.7418221990854 85.132965786055067 ,19.5376965620852 85.313196608399025 ,20.0440946706146 85.671621968809518 ,20.4585188698909 86.67230555877353 ,20.985164627781 88.144574098555054 ,21.4150802357179 89.132317119356145 ,21.7416401732178 90.102156452009581 ,22.0453339387083 91.035234286055072 ,22.4189496732178 91.422268286055058 ,22.9907044459364 91.422268286055058 ,24.3761102413734 91.359675009405748 ,24.7994396326129 91.131992786055065 ,25.1281876732179 90.407119589842551 ,25.4138893426094 89.64191188605507 ,25.6216560232178 87.780159022408483 ,26.2522445917986 85.962324357442185 ,26.9804218160887 85.536435812343925 ,27.3168995660217 85.229922596567917 ,27.7919961994623 85.100412837204814 ,28.323500261821 85.205534661055069 ,28.8292002982178 85.677847580704196 ,29.3728726063922 86.328041779776655 ,29.7063037394324 87.820701897187732 ,30.1596296732178 89.364298654936974 ,30.6514326079816 90.857843702753954 ,31.2562260065189 91.210513543830544 ,31.5186404458388 91.422268286055058 ,31.8920675780028 91.422268286055058 ,33.274331863648 91.293256952753936 ,33.7719470065189 90.944379758278714 ,34.0934347324379 90.504478924423609 ,34.2789446848989 89.532631697791317 ,34.5536039085234 87.682323472582297 ,35.1656554688701 85.887682086055065 ,35.8974087232179 85.459039217559706 ,36.2379411927618 85.205534661055069 ,36.7150180482179 85.162847189565994 ,37.3855427857876 85.432917136055025 ,37.9777164732179 85.976091312409821 ,38.4061960951261 86.599377030880873 ,38.682357030119 87.947758513336638 ,39.1229852640918 89.421499105587287 ,39.600283172082 90.857843702753954 ,40.158008006519 91.433651639013263 ,40.7916813202597 91.513335109624364 ,42.0666168496486 91.208503167899394 ,42.6954523153124 90.587726223555066 ,43.1010790482178 88.021898143184117 ,43.982272530347 86.241290422462683 ,44.6558122186549 85.616890905190289 ,44.987952142217 85.213597869356164 ,45.5281047565189 85.146403324000246 ,46.2427055518427 85.432917136055025 ,46.8794984732178 86.007259573104847 ,47.3312205211745 86.666605941469456 ,47.621162478273 88.09101135744217 ,48.0875974589598 89.765990433096803 ,48.6974199379123 90.608619798893059 ,48.9003731211718 91.306158086055063 ,49.2984609732178 91.490731746666299 ,50.0529458138234 91.422268286055058 ,50.8923373550624 91.228751286055072 ,51.6400166732179 90.391229149515055 ,52.1193901184736 89.406466202753919 ,52.3818318399168 87.660097267193933 ,52.9557496858644 85.974764736055008 ,53.6671072482179 85.373228333417217 ,54.2131322963104 85.132965786055067 ,54.9728094509526 85.215545181483535 ,55.4993957951565 85.506177143184104 ,55.9250359589598 86.571046130082834 ,56.4516524072488 87.728370256666096 ,56.8194422614817 89.282080006062415 ,57.3447640923612 90.809464452753915 ,57.9293191732178 91.228751286055072 ,58.4043154459363 91.228751286055072 ,59.8820816277808 91.099739952753936 ,60.3805345065189 90.404576212940995 ,60.8324433205384 89.551603952753922 ,61.0900968399168 87.828381143184117 ,61.6890780303468 86.364437604210494 ,62.1339158096256 85.517428238400058 ,62.5614027331554 85.012017661055069 ,63.3236055482178 84.982863018862076 ,63.987961648394 85.261977119356118 ,64.5734028399168 85.931790462115586 ,65.0942896435461 86.700946745213145 ,65.4249463334204 88.353641571797013 ,65.9740973160889 89.735207284487686 ,66.622053880219 90.841717286055058 ,67.6051691732178 91.035234286055072 ,67.9746107186549 90.986525678442234 ,68.9203803866258 90.406304036055062 ,69.6370976732178 89.562652606933526 ,69.9899447384209 88.664651036055034 ,70.1692694232179 87.581357878556247 ,70.2378053012772 86.530588563789763 ,70.0456335620852 85.321187176804315 ,69.7717027482533 84.730026506069976 ,69.8312433596365 84.20408418605507 ,70.0918626232179 83.776957723254426 ,70.581534821056 83.517636189803255 ,71.2016309116366 83.470914679477957 ,71.8546507455078 83.681588286055046 ,72.4430941732178 84.474335745055555 ,73.1790625039743 85.350672411055044 ,73.8460924232179 86.002238270718365 ,74.7862610349955 86.423079119356146 ,75.8699577149168 86.636102960967463 ,76.5291255160503 86.664975369356156 ,77.2003870899168 86.361162301409337 ,77.7789445950541 85.842528119356146 ,78.2163513399168 85.181345036055063 ,78.3937419232179 83.96804452196443 ,78.1200185565136 82.843014619356168 ,77.5390418399168 81.723949408607083 ,76.4788735292789 80.625158021360562 ,75.3856909085233 80.145036252832412 ,75.2022701239882 79.618920137135021 ,75.2014627006239 78.650146286055062 ,75.6361246732178 78.168032276267397 ,76.3093604432709 78.021216036055066 ,77.1358814232179 78.19577774363151 ,77.9103770766297 78.456629286055048 ,78.6743415732179 78.505008536055072 ,80.0386364232178 78.301815686055093 ,80.9771938732178 78.02530533521886 ,81.9589213180256 77.788606543130953 ,82.3665831198251 77.411637486055028 ,82.6220883732178 76.666597036055066 ,82.7478744232178 76.000451978325543 ,82.6622803654883 75.061415867896372 ,81.7274852208495 74.397864838691731 ,80.5402528573978 73.848837489486868 ,79.0386108651708 73.286960857442182 ,77.543649387476 72.610641769126957 ,76.8133819419469 72.160933153218593 ,76.619334920074 71.683534286055064 ,76.6037096732179 71.096594208124998 ,76.9015907339398 70.691351963793565 ,77.4569772280585 70.232156786055057 ,78.8678585732179 69.452397109624343 ,81.1172091144398 68.916241186055061 ,82.5446815732179 68.402541513336558 ,82.9897706732178 66.924775331492015 ,82.9897706732178 66.444752643184117 ,82.851544244605 65.968666002509167 ,82.0706667464448 65.705241250313122 ,81.1237138874759 64.479424149647457 ,77.6504607186549 64.013805693525967 ,76.9624602115643 63.293190071796992 ,76.6037096732179 62.687174395311011 ,76.7021518335271 62.183608831492009 ,77.0787059459363 61.71455254867152 ,77.7702573628362 61.408539770179686 ,78.5291389687045 60.904637386055057 ,80.1450707732178 60.035299478325541 ,82.5208640963096 59.50117838127013 ,82.9897706732178 58.118914095624952 ,82.9897706732178 57.689836223555062 ,82.9172017982178 57.295478813231682 ,82.5330104316466 57.065930832300197 ,82.0244872249868 56.744021886055059 ,80.8804353732179 56.250553536055058 ,79.587096756519 55.790610887002721 ,78.0577906507973 55.49367359040253 ,77.3654289429015 54.976566619356142 ,76.829479506519 54.11368642519863 ,76.6471743917074 53.311514098555058 ,77.0149332982178 52.652010986548603 ,78.1914313340569 52.221253143184072 ,79.5202873160889 51.335790903707817 ,81.9481938791343 51.114987746040399 ,82.5705303904311 50.691547333711 ,82.9897706732178 50.055179989407002 ,83.0433166907851 49.401434000313103 ,82.9897706732178 48.788054223555058 ,82.9172017982178 48.406213424867232 ,82.5417980796422 48.188449983953298 ,82.0435726794603 47.891128391328408 ,80.9221943047612 47.304898017740918 ,79.2147800761828 46.623082786055072 ,77.5471050482178 45.93826227580422 ,76.8045996714985 45.474266541875721 ,76.6210539703851 44.99431470275394 ,76.6359625065189 44.309392136378541 ,77.0783701872651 43.888826126196129 ,77.8216274453572 43.333293786055059 ,79.6032231732178 42.333455952753937 ,82.3447140065189 42.086459940834978 ,82.747785524314 41.697614381270142 ,82.9897706732178 40.315350095624943 ,82.9897706732178 39.817734952753959 ,82.8607593399168 39.367482046964412 ,82.162662081029 39.122363866055061 ,81.3023024332178 38.471554612772358 ,79.4010319231847 37.726138711055079 ,77.5422671232179 37.34089802177332 ,77.0035562171456 36.785968619356147 ,76.6682153399169 36.116348828042682 ,76.6692038470072 35.531040195181163 ,77.0083361277808 34.899176320446109 ,78.0869363341208 34.497307566055113 ,79.3168180132178 33.999926511119916 ,80.8394842877766 33.454250936055082 ,82.3414887232178 33.191093985552492 ,82.7452212206777 32.795413513336591 ,82.9897706732178 31.410007717899632 ,82.9897706732178 30.94820578605507 ,82.9897706732178  "
       class="0"
       style="fill:none;stroke:#000000;stroke-width:0.1;stroke-miterlimit:4;stroke-opacity:1;stroke-dasharray:none" />
    <path
       style="fill:none;stroke:#000000;stroke-width:0.16918392;stroke-miterlimit:4;stroke-opacity:1;stroke-dasharray:none"
       d="M 53.882969,-2.8243256 C 48.270034,-2.5290122 48.671806,12.023939 46.375432,0.87657264 43.053823,-7.0276236 32.641667,-1.6376055 33.052199,5.8463503 32.488916,-1.68536 20.959479,-6.4994524 19.178549,2.9165568 18.91368,10.821324 18.258547,7.255536 12.115689,5.0533007 2.8285644,3.2773789 4.0417989,16.577667 8.8377502,19.063844 1.078381,15.614207 -7.8306397,26.600644 1.4359537,31.223938 c 8.336404,2.512136 -1.07128051,2.315433 -3.8066382,5.762828 -3.704896,6.48219 4.2185569,10.527014 7.8776263,11.367044 -8.3936205,-0.749031 -12.3988608,11.790152 -3.2726262,13.580234 9.0795154,2.230433 -9.9433872,2.722271 -5.1865698,10.422735 -0.9085337,5.367864 13.4530522,4.866978 5.5513474,7.031707 -8.4582895,0.784177 -6.7080843,13.651154 1.5332292,13.481843 0.4533554,1.271541 -10.1624762,2.774955 -7.4017965,9.146501 -1.7348103,5.68735 13.8554581,5.06067 5.7628273,7.4018 -8.8555481,2.57223 -5.268044,14.58133 3.3836784,13.27037 6.2917334,-1.77162 -4.601575,6.03363 -1.0573995,9.72807 2.2733819,6.68443 11.1962869,3.35807 13.6933239,0.10574 -2.894074,6.85938 6.082124,15.96827 11.367044,8.56494 2.517794,-5.95226 3.394694,-5.23482 4.969778,0.68731 4.65441,6.52625 12.959889,0.20241 12.900274,-6.45014 -0.205775,6.89787 9.093476,13.23761 13.111754,5.55135 2.49831,-11.08946 2.008458,0.26883 6.132917,2.96072 6.041356,2.33441 10.089745,-2.69582 10.785475,-8.40633 0.139274,6.74 8.538265,13.04163 13.006013,5.76283 2.802373,-11.55916 1.967146,2.0912 7.983367,3.01358 7.432292,4.71872 8.027852,-12.77769 10.203902,-5.92143 2.2119,8.49837 14.35321,6.05117 13.27037,-2.53776 -2.00248,-8.14138 5.69081,4.26469 9.99242,0.26435 6.07412,-2.31424 3.88073,-10.72014 -0.31722,-13.74619 7.8851,3.41854 16.87748,-7.73236 7.4018,-12.21297 -9.65964,-2.76207 2.99797,-1.98126 4.12386,-6.66162 2.69959,-5.940101 -3.58471,-9.364522 -7.98337,-10.151031 8.4206,0.811629 12.91727,-12.206696 3.38368,-13.746194 -9.2001,-2.069675 9.63551,-2.525726 5.3103,-9.778935 2.21846,-5.773002 -14.34985,-5.650966 -5.57465,-7.668156 8.72259,-0.885775 6.40757,-13.787779 -1.8757,-13.521646 -3.15803,-1.619339 9.495,-1.481704 7.42705,-6.621815 2.23577,-6.052866 -6.0435,-7.660612 -8.35346,-8.935026 7.43848,-0.446642 11.71336,-11.845982 2.85498,-13.799063 -7.33747,-0.01787 -5.63727,-0.396609 -2.48489,-6.238657 C 138.72554,3.9751154 125.94389,2.7710781 122.19098,9.2828987 125.51729,2.1503379 116.10379,-7.7227834 110.80207,0.68827306 106.87357,10.694656 108.45608,-2.0699064 102.20613,-2.7714556 95.94512,-5.59121 94.357621,3.6773735 92.95388,5.3705205 93.541492,-2.6699329 81.433682,-6.7842177 79.541287,2.0482542 77.215127,11.424988 77.92015,-3.3973962 72.4932,-2.7714556 64.847378,-7.5780229 63.982144,10.119775 61.972075,2.8856317 61.666373,-1.3331796 57.947861,-3.8955571 53.882969,-2.8243256 z"
       id="polyline4413-7"
       inkscape:connector-curvature="0" />
  </g>
</svg>
