<?xml version="1.0" encoding="UTF-8" standalone="no"?>
<svg
   xmlns:dc="http://purl.org/dc/elements/1.1/"
   xmlns:cc="http://creativecommons.org/ns#"
   xmlns:rdf="http://www.w3.org/1999/02/22-rdf-syntax-ns#"
   xmlns:svg="http://www.w3.org/2000/svg"
   xmlns="http://www.w3.org/2000/svg"
   xmlns:sodipodi="http://sodipodi.sourceforge.net/DTD/sodipodi-0.dtd"
   xmlns:inkscape="http://www.inkscape.org/namespaces/inkscape"
   width="481.8897pt"
   height="340.1574pt"
   viewBox="0 0 481.8897 340.1574"
   version="1.1"
   id="svg2"
   inkscape:version="0.48.3.1 r9886"
   sodipodi:docname="styro-logo.svg">
  <metadata
     id="metadata22">
    <rdf:RDF>
      <cc:Work
         rdf:about="">
        <dc:format>image/svg+xml</dc:format>
        <dc:type
           rdf:resource="http://purl.org/dc/dcmitype/StillImage" />
      </cc:Work>
    </rdf:RDF>
  </metadata>
  <sodipodi:namedview
     pagecolor="#ffffff"
     bordercolor="#666666"
     borderopacity="1"
     objecttolerance="10"
     gridtolerance="10"
     guidetolerance="10"
     inkscape:pageopacity="0"
     inkscape:pageshadow="2"
     inkscape:window-width="1280"
     inkscape:window-height="1000"
     id="namedview20"
     showgrid="true"
     inkscape:zoom="2"
     inkscape:cx="210.43345"
     inkscape:cy="214.57405"
     inkscape:window-x="0"
     inkscape:window-y="24"
     inkscape:window-maximized="1"
     inkscape:current-layer="svg2"
     inkscape:snap-grids="false">
    <inkscape:grid
       type="xygrid"
       id="grid3037"
       empspacing="10"
       visible="true"
       enabled="true"
       snapvisiblegridlinesonly="true"
       units="mm"
       spacingx="1mm"
       spacingy="1mm" />
  </sodipodi:namedview>
  <defs
     id="defs4">
    <clipPath
       id="clip1">
      <path
         d="M 0 340.15625 L 481.890625 340.15625 L 481.890625 0 L 0 0 L 0 340.15625 Z M 0 340.15625 "
         id="path7" />
    </clipPath>
  </defs>
  <g
     id="g3051"
     transform="matrix(0,-1.4422435,1.4422435,0,-299.39758,250.83378)">
    <g
       id="g3046">
      <g
         id="g3042">
        <g
           id="g3039">
          <path
             style="fill:none;stroke:#000000;stroke-width:0.34732416px;stroke-linecap:butt;stroke-linejoin:miter;stroke-opacity:1"
             d="m -61.14295,357.61964 22.913406,-0.19382 49.193864,-73.77766 -49.22778,-73.84056 36.9313878,0.008 28.7128802,43.12726 12.347577,0.009 -28.736937,-43.12084 36.903197,0 28.719077,43.0633 94.255378,0.004 0.076,24.59489 -77.941701,0 8.183821,12.26487 69.75788,0 -0.0227,24.65694 -53.29802,0.004 28.70417,43.06743 -36.91404,0 -30.762598,-46.14934 -30.766979,46.14934 -36.92947,0 28.755445,-43.24185 -12.373434,0.17367 16.57931,-24.81198 12.205166,0.15193 4.070209,-6.11073 -4.031835,-6.04859 -12.314103,0.003 4.036763,6.04288 -49.2268949,73.84032 -36.8964531,0.009 -23.231459,0.0242"
             id="path3031"
             inkscape:connector-curvature="0"
             sodipodi:nodetypes="ccccccccccccccccccccccccccccccccc" />
        </g>
      </g>
    </g>
  </g>
</svg>
